<svg aria-hidden="true" style="position: absolute; width: 0; height: 0; overflow: hidden;" version="1.1" xmlns="http://www.w3.org/2000/svg" xmlns:xlink="http://www.w3.org/1999/xlink">
<defs>
<symbol id="icon-logo-en" viewBox="0 0 43 32">
<path d="M19.828 27.907h-3.822c-2.067 0-3.753-1.129-3.753-2.516v-2.897c0-1.387 1.686-2.502 3.753-2.502h3.808c1.904 0 3.332 0.87 3.74 1.986h-7.548c-0.435 0-0.789 0.231-0.789 0.517v2.897c0 0.299 0.34 0.53 0.789 0.53h7.561c-0.408 1.088-1.863 1.986-3.74 1.986z"></path>
<path d="M35.373 27.907v-4.026l-3.522 4.026h-0.789l-3.522-4.026v4.026h-2.978v-7.915h2.978l3.971 4.434 3.835-4.434h3.006v7.915h-2.978z"></path>
<path d="M12.267 15.272l-0.014 0.027v2.951h7.398v-2.91l-3.617-4.801-3.767 4.733z"></path>
<path d="M19.706 10.417c0 0 3.631 4.624 3.672 4.678 0 0.054 0 3.155 0 3.155h5.848v-6.623l-5.358-6.596-4.162 5.385z"></path>
<path d="M28.029 5.385c0 0 4.637 5.957 4.678 5.997 0 0.054 0 6.854 0 6.854h5.644v-10.689l-6.161-7.548-4.162 5.385z"></path>
<path d="M0.054 28.505h38.297v0.53h-38.297v-0.53z"></path>
<path d="M3.033 25.676v2.217h-2.978v-7.915h7.575c2.108 0 3.794 1.115 3.794 2.502v0.68c0 0.626-0.517 1.224-1.074 1.537 0.558 0.299 1.074 0.952 1.074 1.523v1.659h-2.978v-1.659c0-0.299-0.354-0.558-0.802-0.558l-4.61 0.014zM3.033 23.704h4.624c0.435 0 0.802-0.245 0.802-0.53v-0.68c0-0.299-0.381-0.517-0.816-0.517h-4.61v1.727z"></path>
<path d="M42.961 25.948v1.047c0 0.49-0.408 0.898-0.898 0.898h-1.034c-0.49 0-0.898-0.408-0.898-0.898v-1.047c0-0.449 0.313-0.802 0.707-0.898v1.945c0 0.109 0.082 0.19 0.19 0.19h1.034c0.109 0 0.19-0.082 0.19-0.19v-1.047c0-0.109-0.082-0.19-0.19-0.19h-0.15v0.802l-0.707 0.136v-1.646h0.857c0.49 0 0.898 0.408 0.898 0.898z"></path>
<path d="M42.961 21.46h-0.598c-0.109 0-0.204 0.082-0.204 0.19v1.183l-0.707 0.136v-1.319c0-0.109-0.082-0.19-0.19-0.19h-0.245c-0.109 0-0.19 0.095-0.19 0.19v1.102h2.122v0.707h-2.829v-1.809c0-0.503 0.408-0.898 0.898-0.898h0.245c0.218 0 0.435 0.122 0.558 0.258 0.109-0.136 0.34-0.258 0.544-0.258h0.598v0.707z"></path>
<path d="M42.961 17.272v1.061c0 0.49-0.408 0.898-0.898 0.898h-1.034c-0.49 0-0.898-0.408-0.898-0.898v-1.061c0-0.503 0.408-0.898 0.898-0.898h1.034c0.49 0 0.898 0.408 0.898 0.898zM41.017 17.081c-0.109 0-0.19 0.095-0.19 0.19v1.061c0 0.109 0.082 0.19 0.19 0.19h1.034c0.109 0 0.19-0.082 0.19-0.19v-1.061c0-0.109-0.082-0.19-0.19-0.19h-1.034z"></path>
<path d="M42.961 12.838v1.061c0 0.49-0.408 0.898-0.898 0.898h-1.945v-0.707h1.931c0.109 0 0.19-0.082 0.19-0.19v-1.061c0-0.109-0.082-0.19-0.19-0.19h-1.931v-0.707h1.931c0.503 0 0.911 0.408 0.911 0.898z"></path>
<path d="M42.268 8.554v1.17l-0.707 0.136v-1.292c0-0.109-0.082-0.19-0.19-0.19h-0.354c-0.109 0-0.19 0.095-0.19 0.19v1.088h2.122v0.707h-2.829v-1.809c0-0.503 0.408-0.898 0.898-0.898h0.354c0.503 0 0.898 0.394 0.898 0.898z"></path>
<path d="M20.195 30.314c-0.163 0-0.258 0.041-0.258 0.15v0.136c0 0.136 0.19 0.15 0.258 0.15h0.476c0.367 0 0.707 0.177 0.707 0.503v0.163c0 0.367-0.313 0.544-0.68 0.544h-1.278v-0.367h1.197c0.054 0 0.231-0.027 0.231-0.177v-0.136c0-0.109-0.095-0.15-0.258-0.15h-0.49c-0.367 0-0.68-0.163-0.68-0.544v-0.163c0-0.34 0.34-0.517 0.68-0.517h1.292v0.381l-1.197 0.027z"></path>
<path d="M23.092 31.973h-0.802c-0.367 0-0.68-0.163-0.68-0.544v-0.979c0-0.34 0.34-0.517 0.68-0.517h0.802c0.34 0 0.68 0.177 0.68 0.517v0.979c0.014 0.367-0.313 0.544-0.68 0.544zM23.255 30.477c0-0.109-0.095-0.15-0.245-0.15h-0.626c-0.163 0-0.258 0.041-0.258 0.15v0.966c0 0.136 0.19 0.15 0.258 0.15h0.626c0.068 0 0.245-0.014 0.245-0.15v-0.966z"></path>
<path d="M24.724 31.973c-0.367 0-0.68-0.163-0.68-0.544v-1.496h0.517v1.496c0 0.136 0.19 0.15 0.258 0.15h1.197v0.381l-1.292 0.014z"></path>
<path d="M27.689 31.973h-0.789c-0.367 0-0.68-0.163-0.68-0.544v-1.496h0.517v1.496c0 0.136 0.19 0.15 0.258 0.15h0.612c0.068 0 0.258-0.014 0.258-0.15v-1.496h0.517v1.496c0 0.367-0.326 0.544-0.694 0.544z"></path>
<path d="M29.824 30.327v1.659h-0.53v-1.659h-0.626v-0.381h1.768v0.381h-0.612z"></path>
<path d="M30.694 31.973v-2.026h0.517v2.026h-0.517z"></path>
<path d="M32.966 31.973h-0.802c-0.367 0-0.68-0.163-0.68-0.544v-0.979c0-0.34 0.34-0.517 0.68-0.517h0.802c0.34 0 0.68 0.177 0.68 0.517v0.979c0.014 0.367-0.299 0.544-0.68 0.544zM33.129 30.477c0-0.109-0.095-0.15-0.245-0.15h-0.626c-0.163 0-0.258 0.041-0.258 0.15v0.966c0 0.136 0.19 0.15 0.258 0.15h0.626c0.068 0 0.245-0.014 0.245-0.15v-0.966z"></path>
<path d="M35.645 32c-0.177 0-0.313-0.054-0.408-0.218l-0.775-1.251v1.442h-0.517v-1.727c0-0.245 0.218-0.34 0.422-0.34 0.177 0 0.313 0.054 0.408 0.218l0.775 1.251v-1.442h0.53v1.727c-0.014 0.245-0.231 0.34-0.435 0.34z"></path>
<path d="M37.1 30.314c-0.163 0-0.258 0.041-0.258 0.15v0.136c0 0.136 0.19 0.15 0.258 0.15h0.476c0.367 0 0.707 0.177 0.707 0.503v0.163c0 0.367-0.313 0.544-0.68 0.544h-1.265v-0.367h1.197c0.041 0 0.231-0.027 0.231-0.177v-0.136c0-0.109-0.095-0.15-0.258-0.15h-0.49c-0.367 0-0.68-0.163-0.68-0.544v-0.163c0-0.34 0.34-0.517 0.68-0.517h1.292v0.381l-1.21 0.027z"></path>
<path d="M2.475 31.973v-1.469l-0.585 1.292c-0.109 0.136-0.218 0.19-0.394 0.19-0.204 0-0.286-0.054-0.394-0.19l-0.585-1.278v1.455h-0.517v-1.714c0-0.258 0.204-0.367 0.462-0.367 0.245 0 0.381 0.082 0.476 0.286l0.558 1.292 0.585-1.306c0.082-0.19 0.218-0.272 0.476-0.272s0.449 0.109 0.449 0.367v1.714h-0.53z"></path>
<path d="M4.746 31.973h-0.802c-0.367 0-0.68-0.163-0.68-0.544v-0.979c0-0.34 0.34-0.517 0.68-0.517h0.816c0.34 0 0.68 0.177 0.68 0.517v0.979c0 0.367-0.313 0.544-0.694 0.544zM4.909 30.477c0-0.109-0.095-0.15-0.245-0.15h-0.626c-0.163 0-0.258 0.041-0.258 0.15v0.966c0 0.136 0.19 0.15 0.258 0.15h0.626c0.068 0 0.245-0.014 0.245-0.15v-0.966z"></path>
<path d="M7.208 31.973h-1.496v-2.040h1.51c0.34 0 0.68 0.177 0.68 0.517v0.979c0 0.367-0.313 0.544-0.694 0.544zM7.371 30.463c0-0.109-0.095-0.15-0.258-0.15h-0.884v1.265h0.884c0.068 0 0.258-0.014 0.258-0.15v-0.966z"></path>
<path d="M11.274 31.973c-0.367 0-0.68-0.163-0.68-0.544v-1.496h0.517v1.496c0 0.136 0.19 0.15 0.258 0.15h1.197v0.381l-1.292 0.014z"></path>
<path d="M17.34 31.973l-1.061-0.816v0.816h-0.517v-2.040h1.578c0.34 0 0.598 0.218 0.598 0.49v0.245c0 0.15-0.19 0.476-0.598 0.476h-0.354l1.074 0.83h-0.721zM17.421 30.477c0-0.095-0.095-0.15-0.204-0.15h-0.938v0.435h0.938c0.122 0 0.204-0.054 0.204-0.15v-0.136z"></path>
<path d="M9.629 31.973h-0.789c-0.367 0-0.68-0.163-0.68-0.544v-1.496h0.517v1.496c0 0.136 0.19 0.15 0.258 0.15h0.612c0.068 0 0.258-0.014 0.258-0.15v-1.496h0.517v1.496c-0.014 0.367-0.326 0.544-0.694 0.544z"></path>
<path d="M13.26 31.973h1.306l-0.19-0.449h-0.789l0.571-1.061 0.816 1.496h0.558l-0.993-1.85c-0.082-0.136-0.204-0.218-0.367-0.218-0.177 0-0.313 0.054-0.394 0.204l-0.993 1.877h0.558z"></path>
</symbol>
<symbol id="icon-facebook" viewBox="0 0 17 32">
<path d="M4.8 18.062h-3.958c-0.64 0-0.842-0.24-0.842-0.842v-4.844c0-0.64 0.24-0.842 0.842-0.842h3.958v-3.524c-0.003-0.079-0.004-0.173-0.004-0.267 0-1.562 0.402-3.029 1.109-4.305l-0.023 0.046c0.798-1.374 2.036-2.417 3.518-2.949l0.046-0.015c0.893-0.33 1.924-0.52 3-0.52 0.029 0 0.059 0 0.088 0l-0.004-0h3.93c0.56 0 0.8 0.24 0.8 0.8v4.566c0 0.56-0.24 0.8-0.8 0.8-1.082 0-2.162 0-3.244 0.040-0.064-0.010-0.137-0.016-0.212-0.016-0.799 0-1.446 0.647-1.446 1.446 0 0.075 0.006 0.148 0.017 0.22l-0.001-0.008c-0.040 1.2 0 2.362 0 3.6h4.646c0.64 0 0.882 0.24 0.882 0.882v4.846c0 0.64-0.2 0.842-0.882 0.842h-4.646v13.056c0 0.68-0.2 0.922-0.922 0.922h-5c-0.6 0-0.842-0.24-0.842-0.842z"></path>
</symbol>
<symbol id="icon-arrow-right" viewBox="0 0 33 32">
<path d="M32.598 14.511l-14.516-14.511-2.977 2.977 10.919 10.919h-26.024v4.211h26.024l-10.919 10.915 2.977 2.977 14.516-14.511c0.381-0.381 0.616-0.907 0.616-1.489s-0.236-1.108-0.616-1.489v0z"></path>
</symbol>
<symbol id="icon-arrow-left" viewBox="0 0 33 32">
<path d="M0.621 14.511l14.516-14.511 2.977 2.977-10.919 10.919h26.024v4.211h-26.024l10.919 10.915-2.977 2.977-14.516-14.511c-0.381-0.381-0.616-0.907-0.616-1.489s0.236-1.108 0.616-1.489v0z"></path>
</symbol>
<symbol id="icon-linkedin" viewBox="0 0 32 32">
<path d="M32 32v-11.184c0-5.496-1.184-9.696-7.6-9.696-0.082-0.004-0.178-0.006-0.275-0.006-2.43 0-4.554 1.307-5.708 3.257l-0.017 0.031h-0.076v-2.786h-6.060v20.384h6.336v-10.116c0-2.672 0.496-5.23 3.78-5.23 3.244 0 3.282 3.016 3.282 5.382v9.924h6.336z"></path>
<path d="M0.496 11.616h6.336v20.384h-6.336z"></path>
<path d="M3.664 0c-0.006-0-0.013-0-0.020-0-2.035 0-3.684 1.649-3.684 3.684s1.649 3.684 3.684 3.684c2.035 0 3.684-1.649 3.684-3.684 0-0.007-0-0.014-0-0.021v0.001c-0.001-2.023-1.641-3.663-3.664-3.664h-0z"></path>
</symbol>
<symbol id="icon-logo-fr" viewBox="0 0 43 32">
<path d="M19.937 28.080h-3.861c-2.079 0-3.802-1.127-3.802-2.554v-2.911c0-1.366 1.722-2.495 3.802-2.495h3.861c1.901 0 3.386 0.891 3.742 2.019h-7.602c-0.416 0-0.772 0.238-0.772 0.534v2.913c0 0.297 0.356 0.534 0.772 0.534h7.603c-0.414 1.067-1.841 1.957-3.742 1.957z"></path>
<path d="M35.618 28.080v-4.039l-3.564 4.039h-0.772l-3.564-4.039v4.039h-2.97v-7.959h2.97l3.98 4.453 3.861-4.453h2.97v7.959z"></path>
<path d="M12.288 15.377v0 2.97h7.484v-2.911l-3.623-4.811z"></path>
<path d="M19.827 10.512l3.683 4.692v3.148h5.88v-6.656l-5.405-6.651z"></path>
<path d="M28.194 5.405s4.692 5.999 4.692 6.058v6.89h5.702v-10.751l-6.237-7.603z"></path>
<path d="M20.483 31.941v-1.247l-0.475 1.127c-0.082 0.109-0.211 0.178-0.357 0.178s-0.274-0.070-0.356-0.177l-0.001-0.001-0.475-1.127v1.247h-0.475v-1.485c0-0.238 0.178-0.297 0.416-0.297s0.356 0.059 0.416 0.238l0.475 1.127 0.534-1.127c0.059-0.178 0.178-0.238 0.416-0.238s0.416 0.059 0.416 0.297v1.485z"></path>
<path d="M22.501 31.941h-0.712c-0.297 0-0.594-0.119-0.594-0.475v-0.831c0-0.297 0.297-0.416 0.594-0.416h0.713c0.297 0 0.594 0.178 0.594 0.416v0.831c-0.032 0.27-0.26 0.478-0.536 0.478-0.021 0-0.041-0.001-0.061-0.003l0.002 0zM22.62 30.634c0-0.119-0.059-0.119-0.238-0.119h-0.534c-0.119 0-0.238 0.059-0.238 0.119v0.831c0 0.119 0.178 0.119 0.238 0.119h0.534c0.059 0 0.238 0 0.238-0.119z"></path>
<path d="M24.638 31.941h-1.306v-1.782h1.306c0.297 0 0.594 0.178 0.594 0.416v0.891c0 0.296-0.237 0.475-0.594 0.475zM24.817 30.634c0-0.119-0.059-0.119-0.238-0.119h-0.772v1.071h0.772c0.059 0 0.238 0 0.238-0.119z"></path>
<path d="M26.776 31.941h-0.653c-0.297 0-0.594-0.119-0.594-0.475v-1.306h0.475v1.306c0 0.119 0.178 0.119 0.238 0.119h0.475c0.059 0 0.238 0 0.238-0.119v-1.306h0.475v1.306c-0.059 0.275-0.3 0.479-0.588 0.479-0.023 0-0.046-0.001-0.068-0.004l0.003 0z"></path>
<path d="M28.201 31.941c-0.297 0-0.594-0.119-0.594-0.475v-1.306h0.475v1.306c0 0.119 0.178 0.119 0.238 0.119h1.071v0.356z"></path>
<path d="M32.059 31.941v-1.782h0.475v1.782z"></path>
<path d="M34.137 31.941l-0.891-0.711v0.713h-0.475v-1.784h1.366c0.018-0.002 0.038-0.004 0.058-0.004 0.244 0 0.445 0.182 0.476 0.417l0 0.002v0.238c-0.053 0.24-0.264 0.416-0.516 0.416-0.007 0-0.013-0-0.020-0l0.001 0h-0.295l0.95 0.713zM34.196 30.634c0-0.059-0.059-0.119-0.178-0.119h-0.772v0.356h0.831c0.119 0 0.178-0.059 0.178-0.119v-0.119z"></path>
<path d="M35.321 31.228v0.238c0 0.119 0.178 0.119 0.238 0.119h1.010v0.356h-1.127c-0.297 0-0.594-0.119-0.594-0.475v-0.832c0-0.297 0.297-0.416 0.594-0.416h1.127v0.356h-1.071c-0.119 0-0.238 0.059-0.238 0.119v0.178h1.247v0.356z"></path>
<path d="M37.579 30.456c-0.119 0-0.238 0.059-0.238 0.119v0.119c0 0.119 0.178 0.119 0.238 0.119h0.414c0.297 0 0.594 0.178 0.594 0.416v0.238c-0.032 0.27-0.26 0.478-0.536 0.478-0.020 0-0.041-0.001-0.061-0.003l0.002 0h-1.071v-0.297h1.015c0.059 0 0.178 0 0.178-0.119v-0.121c0-0.119-0.059-0.119-0.238-0.119h-0.416c-0.297 0-0.594-0.119-0.594-0.475v-0.119c0-0.297 0.297-0.416 0.594-0.416h1.127v0.356h-1.009z"></path>
<path d="M29.921 31.941h1.127l-0.178-0.416h-0.711l0.475-0.95 0.713 1.306h0.475l-0.891-1.604c-0.055-0.107-0.165-0.178-0.291-0.178-0.002 0-0.004 0-0.006 0h0c-0.013-0.002-0.029-0.003-0.044-0.003-0.133 0-0.249 0.072-0.311 0.179l-0.001 0.002-0.891 1.604h0.475z"></path>
<path d="M0 28.733h38.588v0.534h-38.588v-0.534z"></path>
<path d="M3.030 25.882v2.255h-3.030v-8.016h7.662c2.138 0 3.802 1.127 3.802 2.495v0.713c-0.073 0.679-0.484 1.247-1.060 1.539l-0.011 0.005c0.592 0.291 1.006 0.863 1.070 1.537l0.001 0.008v1.663h-2.97v-1.663c0-0.297-0.356-0.534-0.831-0.534zM3.030 23.863h4.633c0.416 0 0.831-0.238 0.831-0.534v-0.713c0-0.297-0.356-0.534-0.831-0.534h-4.633v1.782z"></path>
<path d="M0.653 30.515c-0.119 0-0.238 0.059-0.238 0.119v0.119c0.041 0.073 0.119 0.121 0.207 0.121 0.011 0 0.022-0.001 0.032-0.002l-0.001 0h0.418c0.297 0 0.594 0.119 0.594 0.416v0.178c0 0.297-0.238 0.475-0.594 0.475h-1.071v-0.297h1.010c0.059 0 0.178 0 0.178-0.119v-0.121c0-0.119-0.059-0.119-0.238-0.119h-0.356c-0.297 0.002-0.594-0.117-0.594-0.474v-0.119c0-0.296 0.297-0.415 0.594-0.415h1.127v0.297h-1.071z"></path>
<path d="M3.148 31.881h-0.653c-0.297 0-0.594-0.119-0.594-0.475v-0.831c0-0.297 0.297-0.416 0.594-0.416h0.712c0.297 0 0.594 0.178 0.594 0.416v0.891c-0.078 0.246-0.305 0.421-0.572 0.421-0.029 0-0.057-0.002-0.084-0.006l0.003 0zM3.267 30.634c0-0.119-0.059-0.119-0.238-0.119h-0.475c-0.119 0-0.238 0.059-0.238 0.119v0.831c0 0.119 0.178 0.119 0.238 0.119h0.534c0.059 0 0.238 0 0.238-0.119v-0.831z"></path>
<path d="M4.574 31.881c-0.297 0-0.594-0.119-0.594-0.475v-1.306h0.475v1.366c0 0.119 0.178 0.119 0.238 0.119h1.009v0.356h-1.127z"></path>
<path d="M7.128 31.881h-0.653c-0.297 0-0.594-0.119-0.594-0.475v-1.306h0.475v1.366c0 0.119 0.178 0.119 0.238 0.119h0.534c0.059 0 0.238 0 0.238-0.119v-1.307h0.356v1.306c0 0.298-0.297 0.416-0.594 0.416z"></path>
<path d="M8.91 30.515v1.425h-0.475v-1.425h-0.535v-0.356h1.544v0.356z"></path>
<path d="M9.681 31.881v-1.722h0.416v1.722z"></path>
<path d="M11.642 31.881h-0.712c-0.297 0-0.594-0.119-0.594-0.475v-0.831c0-0.297 0.297-0.416 0.594-0.416h0.713c0.297 0 0.594 0.178 0.594 0.416v0.891c-0.053 0.242-0.266 0.421-0.521 0.421-0.026 0-0.052-0.002-0.077-0.006l0.003 0zM11.761 30.634c0-0.119-0.059-0.119-0.238-0.119h-0.534c-0.119 0-0.238 0.059-0.238 0.119v0.831c0 0.119 0.178 0.119 0.238 0.119h0.534c0.059 0 0.238 0 0.238-0.119z"></path>
<path d="M13.899 31.94c-0.013 0.002-0.029 0.003-0.044 0.003-0.133 0-0.249-0.072-0.311-0.179l-0.001-0.002-0.653-1.071v1.247h-0.476v-1.483c0-0.238 0.178-0.297 0.356-0.297 0.003-0 0.007-0 0.011-0 0.142 0 0.267 0.070 0.344 0.177l0.001 0.001 0.653 1.071v-1.249h0.475v1.485c0.001 0.237-0.178 0.296-0.356 0.296z"></path>
<path d="M15.146 30.515c-0.119 0-0.238 0.059-0.238 0.119v0.119c0 0.119 0.178 0.119 0.238 0.119h0.414c0.297 0 0.594 0.119 0.594 0.416v0.178c0 0.297-0.238 0.475-0.594 0.475h-1.071v-0.297h1.015c0.059 0 0.178 0 0.178-0.119v-0.121c0-0.119-0.059-0.119-0.238-0.119h-0.416c-0.297 0-0.594-0.119-0.594-0.475v-0.119c0-0.297 0.297-0.416 0.594-0.416h1.127v0.297h-1.009z"></path>
<path d="M42.746 26.476v0.891c-0.009 0.423-0.349 0.763-0.771 0.772h-0.892c-0.423-0.009-0.763-0.349-0.772-0.771v-0.892c0.007-0.366 0.253-0.672 0.588-0.771l0.006-0.001v1.604c0.006 0.096 0.082 0.172 0.178 0.178l0.001 0h0.891c0.096-0.006 0.172-0.082 0.178-0.178l0-0.001v-0.891c-0.006-0.096-0.082-0.172-0.178-0.178l-0.001-0h-0.119v0.653l-0.594 0.119v-1.366h0.713c0.422 0.056 0.748 0.402 0.772 0.829l0 0.002z"></path>
<path d="M42.746 22.735h-0.475c-0.096 0.006-0.172 0.082-0.178 0.178l-0 0.001v1.010l-0.595 0.118v-1.127c-0.006-0.096-0.082-0.172-0.178-0.178l-0.001-0h-0.177c-0.096 0.006-0.172 0.082-0.178 0.178l-0 0.001v0.95h1.782v0.593h-2.376v-1.544c0.009-0.423 0.349-0.763 0.771-0.772h0.179c0.189 0.018 0.355 0.106 0.475 0.237l0.001 0.001c0.12-0.132 0.286-0.22 0.472-0.238l0.003-0h0.475z"></path>
<path d="M42.746 19.171v0.891c-0.009 0.423-0.349 0.763-0.771 0.772h-0.892c-0.423-0.009-0.763-0.349-0.772-0.771v-0.892c0.009-0.423 0.349-0.763 0.771-0.772h0.892c0.414 0.029 0.743 0.358 0.772 0.77l0 0.003zM41.143 19.052c-0.096 0.006-0.172 0.082-0.178 0.178l-0 0.001v0.891c0.006 0.096 0.082 0.172 0.178 0.178l0.001 0h0.891c0.096-0.006 0.172-0.082 0.178-0.178l0-0.001v-0.891c-0.006-0.096-0.082-0.172-0.178-0.178l-0.001-0z"></path>
<path d="M42.746 15.488v0.891c-0.009 0.423-0.349 0.763-0.771 0.772h-1.604v-0.594h1.604c0.096-0.006 0.172-0.082 0.178-0.178l0-0.001v-0.891c-0.006-0.096-0.082-0.172-0.178-0.178l-0.001-0h-1.604v-0.594h1.604c0.423 0.009 0.763 0.349 0.772 0.771v0.001z"></path>
<path d="M42.152 11.865v0.95l-0.594 0.119v-1.071c-0.006-0.096-0.082-0.172-0.178-0.178l-0.001-0h-0.297c-0.096 0.006-0.172 0.082-0.178 0.178l-0 0.001v0.95h1.782v0.596h-2.376v-1.544c0.009-0.423 0.349-0.763 0.771-0.772h0.3c0.423 0.008 0.764 0.349 0.77 0.772v0.001z"></path>
<path d="M42.746 9.192c-0.005 0.358-0.295 0.648-0.653 0.651h-1.071c-0.358-0.004-0.647-0.293-0.652-0.651v-1.604h0.594v1.604c0 0.059 0 0.059 0.059 0.059h1.071c0.059 0 0.059 0 0.059-0.059v-1.604h0.594zM41.854 9.311l-0.594 0.119v-1.307h0.594z"></path>
</symbol>
<symbol id="icon-rcm" viewBox="0 0 46 32">
<path d="M0 26.822v0 5.178h13.048v-5.074l-6.317-8.388z"></path>
<path d="M13.152 18.33l6.421 8.181v5.489h10.252v-11.599l-9.424-11.599z"></path>
<path d="M27.754 9.424s8.181 10.459 8.181 10.563v12.013h9.941v-18.744l-10.874-13.256z"></path>
</symbol>
<symbol id="icon-check" viewBox="0 0 45 32">
<path d="M17.128 32.012l-17.124-17.942 4.393-4.195 12.836 13.447 23.311-23.311 4.296 4.296z"></path>
</symbol>
<symbol id="icon-cloak" viewBox="0 0 49 32">
<path d="M35.634 3.449v-2.374h3.881v-1.075h-8.918v1.075h3.962v2.374c-7.653 0.297-13.745 6.573-13.745 14.272 0 7.888 6.394 14.282 14.282 14.282s14.282-6.394 14.282-14.282c0-7.699-6.092-13.975-13.718-14.271l-0.027-0.001zM35.097 30.924c-7.294-0-13.206-5.913-13.206-13.207s5.913-13.207 13.207-13.207 13.207 5.913 13.207 13.207v0c-0.009 7.29-5.917 13.198-13.206 13.207h-0.001z"></path>
<path d="M34.699 17.355l4.992-5.481 0.795 0.724-4.992 5.481-0.795-0.724z"></path>
<path d="M19.389 4.511h-1.075v-1.075h1.075zM17.239 4.511h-1.075v-1.075h1.075zM15.089 4.511h-1.075v-1.075h1.075zM12.939 4.511h-1.075v-1.075h1.075zM10.789 4.511h-1.075v-1.075h1.075zM8.639 4.511h-1.075v-1.075h1.075zM6.489 4.511h-0.025v-1.075z"></path>
<path d="M12.926 13.919h-1.075v-1.075h1.075zM10.775 13.919h-1.075v-1.075h1.075zM8.625 13.919h-1.075v-1.075h1.075zM6.475 13.919h-1.075v-1.075h1.075zM4.325 13.919h-1.075v-1.075h1.075zM2.175 13.919h-1.075v-1.075h1.075zM0.025 13.919h-0.025v-1.075z"></path>
<path d="M12.926 23.328h-1.075v-1.075h1.075zM10.775 23.328h-1.075v-1.075h1.075zM8.625 23.328h-1.075v-1.075h1.075zM6.475 23.328h-1.075v-1.075h1.075zM4.325 23.328h-1.075v-1.075h1.075zM2.175 23.328h-1.075v-1.075h1.075zM0.025 23.328h-0.025v-1.075z"></path>
<path d="M19.389 32h-1.075v-1.075h1.075zM17.239 32h-1.075v-1.075h1.075zM15.089 32h-1.075v-1.075h1.075zM12.939 32h-1.075v-1.075h1.075zM10.789 32h-1.075v-1.075h1.075zM8.639 32h-1.075v-1.075h1.075zM6.489 32h-0.025v-1.075z"></path>
<path d="M35.208 29.734c-6.68 0-12.095-5.415-12.095-12.095s5.415-12.095 12.095-12.095c6.68 0 12.095 5.415 12.095 12.095v0c-0.008 6.676-5.418 12.087-12.094 12.095h-0.001zM35.208 6.62c-6.086 0-11.019 4.934-11.019 11.019s4.934 11.019 11.019 11.019c6.086 0 11.019-4.934 11.019-11.019v0c-0.007-6.083-4.937-11.012-11.019-11.019h-0.001z"></path>
</symbol>
<symbol id="icon-doc" viewBox="0 0 24 32">
<path d="M23.575 32h-23.575v-32h21.698c1.036 0.001 1.876 0.841 1.877 1.877v0zM0.986 31.014h21.603v-29.137c-0.001-0.492-0.399-0.89-0.891-0.891h-20.712z"></path>
<path d="M18.68 9.889h-0.342v-0.986h0.342zM17.352 9.889h-0.986v-0.986h0.986zM15.38 9.889h-0.986v-0.986h0.986zM13.407 9.889h-0.986v-0.986h0.986zM11.434 9.889h-0.986v-0.986h0.986z"></path>
<path d="M18.68 16.493h-0.342v-0.986h0.342zM17.352 16.493h-0.986v-0.986h0.986zM15.38 16.493h-0.986v-0.986h0.986zM13.407 16.493h-0.986v-0.986h0.986zM11.434 16.493h-0.986v-0.986h0.986z"></path>
<path d="M18.68 23.097h-0.342v-0.986h0.342zM17.352 23.097h-0.986v-0.986h0.986zM15.38 23.097h-0.986v-0.986h0.986zM13.407 23.097h-0.986v-0.986h0.986zM11.434 23.097h-0.986v-0.986h0.986z"></path>
<path d="M6.049 10.378l-1.716-1.712 0.697-0.698 1.017 1.016 1.613-1.613 0.697 0.697z"></path>
<path d="M6.049 23.971l-1.716-1.712 0.697-0.698 1.017 1.016 1.613-1.613 0.697 0.697z"></path>
<path d="M6.049 17.174l-1.715-1.712 0.696-0.698 1.017 1.016 1.613-1.612 0.697 0.697z"></path>
</symbol>
<symbol id="icon-radar" viewBox="0 0 36 32">
<path d="M17.253 1.89h0.945v0.945h-0.945v-0.945z"></path>
<path d="M17.253 3.78h0.945v0.945h-0.945v-0.945z"></path>
<path d="M17.253 0h0.945v0.945h-0.945v-0.945z"></path>
<path d="M35.707 31.053h-4.47v-11.45l-5.256-5.256-4.519 4.519v-5.834c0.574-0.333 1.071-0.711 1.514-1.144l-0.002 0.001c1.37-1.341 2.223-3.205 2.234-5.269v-0.002l0.004-0.476h-7.014v-0.473h-0.945v0.473h-7.011l0.004 0.476c0.021 1.957 0.794 3.73 2.044 5.046l-0.003-0.003h-5.822c-1.304 0.002-2.361 1.058-2.363 2.362v17.028h-4.102v0.945h35.707zM21.484 20.181l4.498-4.497 4.311 4.311v11.057h-8.831v-10.892zM20.518 31.053h-6.544v-18.043c1.056 0.634 2.327 1.014 3.687 1.028l0.004 0h0.063c0.002 0 0.003 0 0.005 0 1.003 0 1.959-0.198 2.832-0.556l-0.050 0.018zM24.241 7.088c-0.283 3.374-3.091 6.005-6.514 6.005s-6.231-2.631-6.512-5.982l-0.002-0.024zM5.048 31.053v-17.027c0-0.783 0.635-1.418 1.418-1.418v0h6.564v18.445z"></path>
</symbol>
<symbol id="icon-doc2" viewBox="0 0 35 32">
<path d="M30.295 0h-17.694v32h22.503v-32zM34.119 31.015h-15.724v-0.835h-0.985v0.835h-3.824v-30.030h3.824v0.631h0.985v-0.631h10.915v0.412h0.985v-0.412h3.824z"></path>
<path d="M17.409 16.391h0.985v0.985h-0.985v-0.985z"></path>
<path d="M17.409 12.451h0.985v0.985h-0.985v-0.985z"></path>
<path d="M17.409 2.601h0.985v0.985h-0.985v-0.985z"></path>
<path d="M17.409 10.481h0.985v0.985h-0.985v-0.985z"></path>
<path d="M17.409 4.571h0.985v0.985h-0.985v-0.985z"></path>
<path d="M17.409 6.541h0.985v0.985h-0.985v-0.985z"></path>
<path d="M17.409 8.511h0.985v0.985h-0.985v-0.985z"></path>
<path d="M17.409 14.421h0.985v0.985h-0.985v-0.985z"></path>
<path d="M17.409 26.24h0.985v0.985h-0.985v-0.985z"></path>
<path d="M17.409 28.21h0.985v0.985h-0.985v-0.985z"></path>
<path d="M17.409 24.27h0.985v0.985h-0.985v-0.985z"></path>
<path d="M17.409 18.361h0.985v0.985h-0.985v-0.985z"></path>
<path d="M17.409 20.331h0.985v0.985h-0.985v-0.985z"></path>
<path d="M17.409 22.301h0.985v0.985h-0.985v-0.985z"></path>
<path d="M29.31 8.291h0.985v0.985h-0.985v-0.985z"></path>
<path d="M29.31 14.201h0.985v0.985h-0.985v-0.985z"></path>
<path d="M29.31 16.171h0.985v0.985h-0.985v-0.985z"></path>
<path d="M29.31 12.231h0.985v0.985h-0.985v-0.985z"></path>
<path d="M29.31 20.111h0.985v0.985h-0.985v-0.985z"></path>
<path d="M29.31 18.141h0.985v0.985h-0.985v-0.985z"></path>
<path d="M29.31 2.382h0.985v0.985h-0.985v-0.985z"></path>
<path d="M29.31 22.081h0.985v0.985h-0.985v-0.985z"></path>
<path d="M29.31 10.261h0.985v0.985h-0.985v-0.985z"></path>
<path d="M29.31 4.352h0.985v0.985h-0.985v-0.985z"></path>
<path d="M29.31 6.322h0.985v0.985h-0.985v-0.985z"></path>
<path d="M29.31 24.051h0.985v0.985h-0.985v-0.985z"></path>
<path d="M29.31 27.991h0.985v0.985h-0.985v-0.985z"></path>
<path d="M29.31 29.961h0.985v0.985h-0.985v-0.985z"></path>
<path d="M29.31 26.021h0.985v0.985h-0.985v-0.985z"></path>
<path d="M21.574 3.988h2.964v0.985h-2.964v-0.985z"></path>
<path d="M21.574 26.51h2.964v0.985h-2.964v-0.985z"></path>
<path d="M23.852 7.164h2.964v0.985h-2.964v-0.985z"></path>
<path d="M21.574 10.663h2.964v0.985h-2.964v-0.985z"></path>
<path d="M23.852 15.028h2.964v0.985h-2.964v-0.985z"></path>
<path d="M21.574 18.527h2.964v0.985h-2.964v-0.985z"></path>
<path d="M23.852 22.891h2.964v0.985h-2.964v-0.985z"></path>
<path d="M8.979 8.333c-0.274-0.462-0.77-0.766-1.337-0.766s-1.063 0.304-1.333 0.759l-0.004 0.007c-0.246 0.299-0.35 0.404-0.574 0.404s-0.329-0.105-0.574-0.404c-0.274-0.461-0.769-0.766-1.336-0.766s-1.062 0.304-1.332 0.759l-0.004 0.007c-0.246 0.299-0.35 0.404-0.573 0.404s-0.329-0.104-0.573-0.404c-0.288-0.448-0.775-0.746-1.334-0.766l-0.003-0v0.985c0.224 0 0.329 0.105 0.574 0.404 0.274 0.461 0.769 0.766 1.336 0.766s1.062-0.304 1.332-0.759l0.004-0.007c0.246-0.299 0.35-0.404 0.573-0.404s0.329 0.105 0.574 0.404c0.274 0.461 0.77 0.766 1.337 0.766s1.063-0.304 1.333-0.759l0.004-0.007c0.246-0.3 0.351-0.405 0.575-0.405s0.329 0.105 0.574 0.404c0.287 0.448 0.775 0.746 1.334 0.766l0.003 0v-0.985c-0.226-0.001-0.331-0.104-0.574-0.403z"></path>
<path d="M8.979 14.015c-0.274-0.462-0.77-0.766-1.337-0.766s-1.063 0.305-1.333 0.759l-0.004 0.007c-0.246 0.299-0.35 0.404-0.574 0.404s-0.329-0.105-0.574-0.404c-0.274-0.461-0.769-0.766-1.336-0.766s-1.062 0.304-1.332 0.759l-0.004 0.007c-0.246 0.299-0.35 0.404-0.573 0.404s-0.329-0.105-0.573-0.404c-0.287-0.448-0.775-0.746-1.334-0.766l-0.003-0v0.985c0.224 0 0.329 0.105 0.574 0.404 0.274 0.461 0.769 0.766 1.336 0.766s1.062-0.304 1.332-0.759l0.004-0.007c0.246-0.299 0.35-0.404 0.573-0.404s0.329 0.105 0.574 0.404c0.274 0.462 0.77 0.766 1.337 0.766s1.063-0.305 1.333-0.759l0.004-0.007c0.246-0.299 0.351-0.404 0.575-0.404s0.329 0.105 0.574 0.404c0.287 0.448 0.775 0.746 1.334 0.766l0.003 0v-0.985c-0.226 0.001-0.331-0.104-0.574-0.403z"></path>
<path d="M8.979 19.698c-0.274-0.462-0.77-0.766-1.337-0.766s-1.063 0.305-1.333 0.759l-0.004 0.007c-0.246 0.299-0.35 0.404-0.574 0.404s-0.329-0.105-0.574-0.404c-0.274-0.461-0.769-0.766-1.336-0.766s-1.062 0.304-1.332 0.759l-0.004 0.007c-0.246 0.299-0.35 0.404-0.573 0.404s-0.329-0.105-0.573-0.404c-0.287-0.448-0.775-0.746-1.334-0.766l-0.003-0v0.985c0.224 0 0.329 0.105 0.574 0.404 0.274 0.461 0.769 0.766 1.336 0.766s1.062-0.305 1.332-0.759l0.004-0.007c0.246-0.299 0.35-0.404 0.573-0.404s0.329 0.105 0.574 0.404c0.274 0.462 0.77 0.766 1.337 0.766s1.063-0.305 1.333-0.759l0.004-0.007c0.246-0.299 0.351-0.404 0.575-0.404s0.329 0.105 0.574 0.404c0.287 0.448 0.775 0.746 1.334 0.766l0.003 0v-0.985c-0.226 0-0.331-0.104-0.574-0.403z"></path>
</symbol>
<symbol id="icon-flash" viewBox="0 0 32 32">
<path d="M16.001 32c-8.832-0.010-15.99-7.168-16-15.999v-0.001c0.010-8.832 7.168-15.99 15.999-16h0.001c8.833 0.010 15.99 7.167 16 15.999v0.001c-0.010 8.833-7.167 15.99-15.999 16h-0.001zM16.001 1.067c-8.244 0.009-14.924 6.69-14.933 14.932v0.001c0.009 8.244 6.69 14.924 14.932 14.933h0.001c8.244-0.009 14.924-6.69 14.933-14.932v-0.001c-0.009-8.244-6.69-14.924-14.932-14.933h-0.001z"></path>
<path d="M16.591 24.4l-0.98-0.421 2.933-6.836h-7.52l4.601-9.168 0.953 0.48-3.826 7.623h7.413z"></path>
</symbol>
<symbol id="icon-doc3" viewBox="0 0 80 32">
<path d="M53.295 0h-27.703v1.839h27.703v28.323h-27.703v1.839h54.362v-32zM78.116 30.161h-22.983v-28.323h22.983z"></path>
<path d="M6.723 0.784h1.839v1.839h-1.839v-1.839z"></path>
<path d="M10.4 0.784h1.839v1.839h-1.839v-1.839z"></path>
<path d="M17.755 0.784h1.839v1.839h-1.839v-1.839z"></path>
<path d="M14.077 0.784h1.839v1.839h-1.839v-1.839z"></path>
<path d="M7.354 10.57h1.839v1.839h-1.839v-1.839z"></path>
<path d="M3.677 10.57h1.839v1.839h-1.839v-1.839z"></path>
<path d="M11.032 10.57h1.839v1.839h-1.839v-1.839z"></path>
<path d="M0 10.57h1.839v1.839h-1.839v-1.839z"></path>
<path d="M3.677 20.357h1.839v1.839h-1.839v-1.839z"></path>
<path d="M0 20.357h1.839v1.839h-1.839v-1.839z"></path>
<path d="M7.354 20.357h1.839v1.839h-1.839v-1.839z"></path>
<path d="M11.032 20.357h1.839v1.839h-1.839v-1.839z"></path>
<path d="M17.755 29.377h1.839v1.839h-1.839v-1.839z"></path>
<path d="M10.4 29.377h1.839v1.839h-1.839v-1.839z"></path>
<path d="M6.723 29.377h1.839v1.839h-1.839v-1.839z"></path>
<path d="M14.077 29.377h1.839v1.839h-1.839v-1.839z"></path>
</symbol>
<symbol id="icon-grid" viewBox="0 0 37 32">
<path d="M21.78 31.999h-21.78v-12.298h21.78zM1.35 30.649h19.080v-9.598h-19.080z"></path>
<path d="M36.703 32h-12.946v-32h12.946zM25.11 30.65h10.243v-29.3h-10.246z"></path>
<path d="M21.78 17.315h-21.78v-17.315h21.78zM1.35 15.965h19.080v-14.615h-19.080z"></path>
</symbol>
<symbol id="icon-check2" viewBox="0 0 32 32">
<path d="M12.256 32c-0.908-0-1.703-0.483-2.143-1.205l-0.006-0.011-1.221-2.008c-0.236-0.385-0.633-0.652-1.095-0.707l-0.007-0.001-2.334-0.276c-1.26-0.149-2.227-1.211-2.227-2.498 0-0.027 0-0.054 0.001-0.080l-0 0.004 0.060-2.349c0-0.012 0.001-0.026 0.001-0.040 0-0.463-0.212-0.877-0.544-1.15l-0.003-0.002-1.814-1.494c-0.565-0.464-0.923-1.163-0.923-1.946 0-0.53 0.164-1.022 0.445-1.427l-0.005 0.008 1.321-1.944c0.162-0.235 0.259-0.527 0.259-0.841 0-0.164-0.026-0.322-0.075-0.47l0.003 0.011-0.719-2.237c-0.079-0.233-0.124-0.501-0.124-0.78 0-1.034 0.626-1.923 1.52-2.306l0.016-0.006 2.16-0.924c0.422-0.182 0.738-0.541 0.857-0.981l0.002-0.010 0.605-2.27c0.292-1.088 1.269-1.875 2.43-1.875 0.152 0 0.301 0.014 0.446 0.039l-0.015-0.002 2.317 0.393c0.076 0.014 0.164 0.022 0.254 0.022 0.387 0 0.74-0.149 1.004-0.392l1.736-1.582c0.446-0.409 1.043-0.66 1.698-0.66 0.658 0 1.258 0.253 1.706 0.667l1.734 1.58c0.264 0.243 0.617 0.391 1.006 0.391 0.089 0 0.177-0.008 0.262-0.023l-0.009 0.001 2.316-0.393c0.13-0.024 0.279-0.037 0.431-0.037 1.161 0 2.138 0.788 2.425 1.858l0.004 0.018 0.605 2.27c0.121 0.45 0.437 0.81 0.85 0.988l0.010 0.004 2.162 0.924c0.909 0.392 1.534 1.281 1.534 2.316 0 0.278-0.045 0.545-0.128 0.794l0.005-0.018-0.719 2.237c-0.047 0.138-0.074 0.297-0.074 0.462 0 0.313 0.097 0.604 0.262 0.843l-0.003-0.005 1.32 1.944c0.275 0.397 0.439 0.889 0.439 1.419 0 0.782-0.357 1.482-0.918 1.943l-0.004 0.003-1.814 1.493c-0.334 0.275-0.545 0.688-0.545 1.151 0 0.015 0 0.029 0.001 0.043l-0-0.002 0.058 2.35c0.001 0.022 0.001 0.048 0.001 0.074 0 1.287-0.968 2.348-2.216 2.494l-0.012 0.001-2.334 0.276c-0.47 0.056-0.867 0.323-1.099 0.702l-0.004 0.006-1.221 2.007c-0.447 0.734-1.242 1.216-2.15 1.216-0.404 0-0.786-0.096-1.125-0.266l0.014 0.007-2.113-1.026c-0.191-0.096-0.417-0.152-0.656-0.152s-0.464 0.056-0.664 0.156l0.009-0.004-2.114 1.026c-0.324 0.163-0.707 0.258-1.111 0.258h-0zM8.697 3.211c-0 0-0 0-0.001 0-0.688 0-1.267 0.467-1.438 1.101l-0.002 0.010-0.605 2.27c-0.205 0.759-0.737 1.365-1.432 1.665l-0.016 0.006-2.16 0.924c-0.54 0.231-0.912 0.758-0.912 1.372 0 0.165 0.027 0.324 0.077 0.473l-0.003-0.011 0.719 2.237c0.078 0.231 0.122 0.498 0.122 0.774 0 0.529-0.163 1.019-0.443 1.424l0.006-0.008-1.322 1.944c-0.163 0.235-0.261 0.527-0.261 0.842 0 0.464 0.212 0.879 0.545 1.152l0.003 0.002 1.814 1.494c0.563 0.464 0.92 1.161 0.92 1.942 0 0.024-0 0.048-0.001 0.072l0-0.003-0.060 2.35c-0 0.014-0.001 0.030-0.001 0.046 0 0.764 0.574 1.394 1.315 1.482l0.007 0.001 2.333 0.276c0.792 0.094 1.462 0.544 1.853 1.183l0.006 0.011 1.221 2.008c0.265 0.435 0.737 0.722 1.276 0.722 0.24 0 0.466-0.057 0.667-0.157l-0.009 0.004 2.115-1.026c0.322-0.161 0.702-0.256 1.103-0.256s0.781 0.095 1.118 0.263l-0.015-0.007 2.114 1.026c0.192 0.097 0.419 0.154 0.659 0.154 0.538 0 1.010-0.286 1.272-0.714l0.004-0.007 1.221-2.008c0.398-0.65 1.068-1.101 1.848-1.193l0.012-0.001 2.333-0.276c0.747-0.087 1.322-0.716 1.322-1.479 0-0.016-0-0.031-0.001-0.047l0 0.002-0.058-2.35c-0.001-0.022-0.001-0.047-0.001-0.072 0-0.779 0.356-1.476 0.914-1.935l0.004-0.003 1.814-1.493c0.336-0.275 0.548-0.69 0.548-1.154 0-0.315-0.098-0.607-0.265-0.848l0.003 0.005-1.32-1.944c-0.273-0.396-0.437-0.886-0.437-1.414 0-0.278 0.045-0.545 0.129-0.795l-0.005 0.018 0.719-2.236c0.046-0.138 0.073-0.296 0.073-0.461 0-0.614-0.371-1.141-0.901-1.37l-0.010-0.004-2.162-0.924c-0.711-0.307-1.243-0.912-1.444-1.654l-0.004-0.018-0.605-2.27c-0.172-0.645-0.752-1.113-1.44-1.113-0.090 0-0.179 0.008-0.265 0.024l0.009-0.001-2.316 0.393c-0.129 0.024-0.278 0.037-0.43 0.037-0.654 0-1.249-0.251-1.695-0.662l-1.735-1.581c-0.265-0.246-0.62-0.396-1.011-0.396-0.389 0-0.743 0.149-1.008 0.394l0.001-0.001-1.736 1.582c-0.444 0.409-1.039 0.66-1.693 0.66-0.151 0-0.299-0.013-0.443-0.039l0.015 0.002-2.317-0.393c-0.076-0.014-0.163-0.022-0.252-0.022h-0z"></path>
<path d="M14.477 20.153c-0.142-0-0.27-0.058-0.363-0.15l-3.952-3.952c-0.093-0.093-0.15-0.221-0.15-0.363s0.057-0.27 0.15-0.363v0c0.093-0.093 0.221-0.15 0.363-0.15s0.27 0.057 0.363 0.15l3.589 3.589 6.91-6.915c0.093-0.093 0.221-0.151 0.363-0.151s0.27 0.058 0.363 0.151v0c0.093 0.093 0.151 0.221 0.151 0.363s-0.058 0.27-0.151 0.363v0l-7.274 7.278c-0.093 0.093-0.221 0.15-0.363 0.15v0z"></path>
</symbol>
<symbol id="icon-yt" viewBox="0 0 46 32">
<path d="M44.759 5.007c-0.543-1.967-2.061-3.484-3.987-4.018l-0.040-0.009c-4.877-0.63-10.518-0.99-16.243-0.99-0.576 0-1.151 0.004-1.725 0.011l0.087-0.001c-0.487-0.006-1.063-0.010-1.639-0.010-5.724 0-11.366 0.346-16.909 1.018l0.667-0.066c-1.963 0.572-3.475 2.095-4.020 4.023l-0.010 0.041c-0.599 3.191-0.941 6.862-0.941 10.614 0 0.133 0 0.266 0.001 0.398l-0-0.020c-0.001 0.119-0.001 0.259-0.001 0.4 0 3.745 0.342 7.409 0.998 10.964l-0.057-0.37c0.543 1.967 2.061 3.484 3.987 4.018l0.040 0.009c4.881 0.63 10.527 0.99 16.256 0.99 0.572 0 1.143-0.004 1.714-0.011l-0.086 0.001c0.487 0.006 1.063 0.010 1.639 0.010 5.724 0 11.366-0.346 16.909-1.018l-0.667 0.066c1.967-0.543 3.484-2.061 4.018-3.987l0.010-0.040c0.6-3.196 0.944-6.873 0.944-10.631 0-0.128-0-0.255-0.001-0.383l0 0.020c0.002-0.196 0.004-0.428 0.004-0.66 0-3.666-0.344-7.251-1.003-10.725l0.056 0.357zM18.295 22.851v-13.711l11.897 6.855z"></path>
</symbol>
<symbol id="icon-instagram" viewBox="0 0 32 32">
<path d="M16 0h-6.585c-1.41 0.040-2.746 0.305-3.99 0.76l0.088-0.028c-1.109 0.465-2.052 1.126-2.825 1.947l-0.004 0.004c-0.778 0.789-1.405 1.729-1.833 2.772l-0.021 0.057c-0.427 1.157-0.692 2.492-0.731 3.885l-0 0.018v13.171c0.040 1.41 0.305 2.746 0.76 3.99l-0.028-0.088c0.454 1.081 1.080 2.005 1.854 2.781l-0-0c0.789 0.778 1.729 1.405 2.772 1.833l0.057 0.021c1.157 0.427 2.492 0.692 3.885 0.731l0.018 0h13.171c1.41-0.040 2.746-0.305 3.99-0.76l-0.088 0.028c2.264-0.859 4.019-2.615 4.859-4.821l0.019-0.057c0.427-1.157 0.692-2.492 0.731-3.885l0-0.018v-13.171c-0.040-1.41-0.305-2.746-0.76-3.99l0.028 0.088c-0.533-1.021-1.237-1.881-2.083-2.574l-0.014-0.011c-0.766-0.79-1.692-1.419-2.727-1.835l-0.053-0.019c-1.151-0.482-2.485-0.782-3.884-0.829l-0.018-0.001h-6.585zM16 2.878h6.439c1.070 0.008 2.092 0.204 3.037 0.557l-0.061-0.020c0.745 0.341 1.367 0.838 1.845 1.452l0.008 0.011c0.531 0.505 0.947 1.125 1.208 1.82l0.011 0.034c0.398 0.884 0.675 1.909 0.777 2.985l0.003 0.039v12.732c-0.040 1.059-0.233 2.060-0.558 2.999l0.022-0.072c-0.273 0.729-0.689 1.349-1.217 1.852l-0.002 0.002c-0.505 0.531-1.125 0.947-1.82 1.208l-0.034 0.011c-0.943 0.438-2.041 0.72-3.198 0.78l-0.022 0.001h-12.683c-1.071-0.014-2.092-0.21-3.039-0.557l0.064 0.020c-0.771-0.323-1.412-0.823-1.894-1.452l-0.008-0.011c-0.546-0.494-0.966-1.117-1.21-1.823l-0.009-0.031c-0.335-0.869-0.531-1.874-0.537-2.924v-12.978c-0.001-0.032-0.001-0.070-0.001-0.109 0-1.015 0.197-1.983 0.556-2.87l-0.018 0.051c0.275-0.679 0.691-1.252 1.214-1.703l0.006-0.005c0.436-0.575 0.992-1.037 1.632-1.354l0.027-0.012c0.959-0.326 2.064-0.521 3.212-0.537l0.008-0h6.488z"></path>
<path d="M16 21.317c-2.937 0-5.317-2.381-5.317-5.317s2.381-5.317 5.317-5.317c2.937 0 5.317 2.381 5.317 5.317v0c0 2.937-2.381 5.317-5.317 5.317v0zM16 7.805c-4.441 0.109-8 3.735-8 8.193 0 4.526 3.669 8.195 8.195 8.195s8.194-3.668 8.195-8.193v-0c-0.027-4.533-3.707-8.196-8.244-8.196-0.052 0-0.103 0-0.154 0.001l0.008-0zM26.439 7.463c0 1.051-0.852 1.902-1.902 1.902s-1.902-0.852-1.902-1.902v0c0-1.051 0.852-1.902 1.902-1.902s1.902 0.852 1.902 1.902v0z"></path>
</symbol>
</defs>
</svg>
