<!-- Generated by IcoMoon.io -->
<svg version="1.1" xmlns="http://www.w3.org/2000/svg" width="32" height="32" viewBox="0 0 32 32">
<title>check2</title>
<path d="M12.256 32c-0.908-0-1.703-0.483-2.143-1.205l-0.006-0.011-1.221-2.008c-0.236-0.385-0.633-0.652-1.095-0.707l-0.007-0.001-2.334-0.276c-1.26-0.149-2.227-1.211-2.227-2.498 0-0.027 0-0.054 0.001-0.080l-0 0.004 0.060-2.349c0-0.012 0.001-0.026 0.001-0.040 0-0.463-0.212-0.877-0.544-1.15l-0.003-0.002-1.814-1.494c-0.565-0.464-0.923-1.163-0.923-1.946 0-0.53 0.164-1.022 0.445-1.427l-0.005 0.008 1.321-1.944c0.162-0.235 0.259-0.527 0.259-0.841 0-0.164-0.026-0.322-0.075-0.47l0.003 0.011-0.719-2.237c-0.079-0.233-0.124-0.501-0.124-0.78 0-1.034 0.626-1.923 1.52-2.306l0.016-0.006 2.16-0.924c0.422-0.182 0.738-0.541 0.857-0.981l0.002-0.010 0.605-2.27c0.292-1.088 1.269-1.875 2.43-1.875 0.152 0 0.301 0.014 0.446 0.039l-0.015-0.002 2.317 0.393c0.076 0.014 0.164 0.022 0.254 0.022 0.387 0 0.74-0.149 1.004-0.392l1.736-1.582c0.446-0.409 1.043-0.66 1.698-0.66 0.658 0 1.258 0.253 1.706 0.667l1.734 1.58c0.264 0.243 0.617 0.391 1.006 0.391 0.089 0 0.177-0.008 0.262-0.023l-0.009 0.001 2.316-0.393c0.13-0.024 0.279-0.037 0.431-0.037 1.161 0 2.138 0.788 2.425 1.858l0.004 0.018 0.605 2.27c0.121 0.45 0.437 0.81 0.85 0.988l0.010 0.004 2.162 0.924c0.909 0.392 1.534 1.281 1.534 2.316 0 0.278-0.045 0.545-0.128 0.794l0.005-0.018-0.719 2.237c-0.047 0.138-0.074 0.297-0.074 0.462 0 0.313 0.097 0.604 0.262 0.843l-0.003-0.005 1.32 1.944c0.275 0.397 0.439 0.889 0.439 1.419 0 0.782-0.357 1.482-0.918 1.943l-0.004 0.003-1.814 1.493c-0.334 0.275-0.545 0.688-0.545 1.151 0 0.015 0 0.029 0.001 0.043l-0-0.002 0.058 2.35c0.001 0.022 0.001 0.048 0.001 0.074 0 1.287-0.968 2.348-2.216 2.494l-0.012 0.001-2.334 0.276c-0.47 0.056-0.867 0.323-1.099 0.702l-0.004 0.006-1.221 2.007c-0.447 0.734-1.242 1.216-2.15 1.216-0.404 0-0.786-0.096-1.125-0.266l0.014 0.007-2.113-1.026c-0.191-0.096-0.417-0.152-0.656-0.152s-0.464 0.056-0.664 0.156l0.009-0.004-2.114 1.026c-0.324 0.163-0.707 0.258-1.111 0.258h-0zM8.697 3.211c-0 0-0 0-0.001 0-0.688 0-1.267 0.467-1.438 1.101l-0.002 0.010-0.605 2.27c-0.205 0.759-0.737 1.365-1.432 1.665l-0.016 0.006-2.16 0.924c-0.54 0.231-0.912 0.758-0.912 1.372 0 0.165 0.027 0.324 0.077 0.473l-0.003-0.011 0.719 2.237c0.078 0.231 0.122 0.498 0.122 0.774 0 0.529-0.163 1.019-0.443 1.424l0.006-0.008-1.322 1.944c-0.163 0.235-0.261 0.527-0.261 0.842 0 0.464 0.212 0.879 0.545 1.152l0.003 0.002 1.814 1.494c0.563 0.464 0.92 1.161 0.92 1.942 0 0.024-0 0.048-0.001 0.072l0-0.003-0.060 2.35c-0 0.014-0.001 0.030-0.001 0.046 0 0.764 0.574 1.394 1.315 1.482l0.007 0.001 2.333 0.276c0.792 0.094 1.462 0.544 1.853 1.183l0.006 0.011 1.221 2.008c0.265 0.435 0.737 0.722 1.276 0.722 0.24 0 0.466-0.057 0.667-0.157l-0.009 0.004 2.115-1.026c0.322-0.161 0.702-0.256 1.103-0.256s0.781 0.095 1.118 0.263l-0.015-0.007 2.114 1.026c0.192 0.097 0.419 0.154 0.659 0.154 0.538 0 1.010-0.286 1.272-0.714l0.004-0.007 1.221-2.008c0.398-0.65 1.068-1.101 1.848-1.193l0.012-0.001 2.333-0.276c0.747-0.087 1.322-0.716 1.322-1.479 0-0.016-0-0.031-0.001-0.047l0 0.002-0.058-2.35c-0.001-0.022-0.001-0.047-0.001-0.072 0-0.779 0.356-1.476 0.914-1.935l0.004-0.003 1.814-1.493c0.336-0.275 0.548-0.69 0.548-1.154 0-0.315-0.098-0.607-0.265-0.848l0.003 0.005-1.32-1.944c-0.273-0.396-0.437-0.886-0.437-1.414 0-0.278 0.045-0.545 0.129-0.795l-0.005 0.018 0.719-2.236c0.046-0.138 0.073-0.296 0.073-0.461 0-0.614-0.371-1.141-0.901-1.37l-0.010-0.004-2.162-0.924c-0.711-0.307-1.243-0.912-1.444-1.654l-0.004-0.018-0.605-2.27c-0.172-0.645-0.752-1.113-1.44-1.113-0.090 0-0.179 0.008-0.265 0.024l0.009-0.001-2.316 0.393c-0.129 0.024-0.278 0.037-0.43 0.037-0.654 0-1.249-0.251-1.695-0.662l-1.735-1.581c-0.265-0.246-0.62-0.396-1.011-0.396-0.389 0-0.743 0.149-1.008 0.394l0.001-0.001-1.736 1.582c-0.444 0.409-1.039 0.66-1.693 0.66-0.151 0-0.299-0.013-0.443-0.039l0.015 0.002-2.317-0.393c-0.076-0.014-0.163-0.022-0.252-0.022h-0z"></path>
<path d="M14.477 20.153c-0.142-0-0.27-0.058-0.363-0.15l-3.952-3.952c-0.093-0.093-0.15-0.221-0.15-0.363s0.057-0.27 0.15-0.363v0c0.093-0.093 0.221-0.15 0.363-0.15s0.27 0.057 0.363 0.15l3.589 3.589 6.91-6.915c0.093-0.093 0.221-0.151 0.363-0.151s0.27 0.058 0.363 0.151v0c0.093 0.093 0.151 0.221 0.151 0.363s-0.058 0.27-0.151 0.363v0l-7.274 7.278c-0.093 0.093-0.221 0.15-0.363 0.15v0z"></path>
</svg>
