<!-- Generated by IcoMoon.io -->
<svg version="1.1" xmlns="http://www.w3.org/2000/svg" width="49" height="32" viewBox="0 0 49 32">
<title>cloak</title>
<path d="M35.634 3.449v-2.374h3.881v-1.075h-8.918v1.075h3.962v2.374c-7.653 0.297-13.745 6.573-13.745 14.272 0 7.888 6.394 14.282 14.282 14.282s14.282-6.394 14.282-14.282c0-7.699-6.092-13.975-13.718-14.271l-0.027-0.001zM35.097 30.924c-7.294-0-13.206-5.913-13.206-13.207s5.913-13.207 13.207-13.207 13.207 5.913 13.207 13.207v0c-0.009 7.29-5.917 13.198-13.206 13.207h-0.001z"></path>
<path d="M34.699 17.355l4.992-5.481 0.795 0.724-4.992 5.481-0.795-0.724z"></path>
<path d="M19.389 4.511h-1.075v-1.075h1.075zM17.239 4.511h-1.075v-1.075h1.075zM15.089 4.511h-1.075v-1.075h1.075zM12.939 4.511h-1.075v-1.075h1.075zM10.789 4.511h-1.075v-1.075h1.075zM8.639 4.511h-1.075v-1.075h1.075zM6.489 4.511h-0.025v-1.075z"></path>
<path d="M12.926 13.919h-1.075v-1.075h1.075zM10.775 13.919h-1.075v-1.075h1.075zM8.625 13.919h-1.075v-1.075h1.075zM6.475 13.919h-1.075v-1.075h1.075zM4.325 13.919h-1.075v-1.075h1.075zM2.175 13.919h-1.075v-1.075h1.075zM0.025 13.919h-0.025v-1.075z"></path>
<path d="M12.926 23.328h-1.075v-1.075h1.075zM10.775 23.328h-1.075v-1.075h1.075zM8.625 23.328h-1.075v-1.075h1.075zM6.475 23.328h-1.075v-1.075h1.075zM4.325 23.328h-1.075v-1.075h1.075zM2.175 23.328h-1.075v-1.075h1.075zM0.025 23.328h-0.025v-1.075z"></path>
<path d="M19.389 32h-1.075v-1.075h1.075zM17.239 32h-1.075v-1.075h1.075zM15.089 32h-1.075v-1.075h1.075zM12.939 32h-1.075v-1.075h1.075zM10.789 32h-1.075v-1.075h1.075zM8.639 32h-1.075v-1.075h1.075zM6.489 32h-0.025v-1.075z"></path>
<path d="M35.208 29.734c-6.68 0-12.095-5.415-12.095-12.095s5.415-12.095 12.095-12.095c6.68 0 12.095 5.415 12.095 12.095v0c-0.008 6.676-5.418 12.087-12.094 12.095h-0.001zM35.208 6.62c-6.086 0-11.019 4.934-11.019 11.019s4.934 11.019 11.019 11.019c6.086 0 11.019-4.934 11.019-11.019v0c-0.007-6.083-4.937-11.012-11.019-11.019h-0.001z"></path>
</svg>
