<!-- Generated by IcoMoon.io -->
<svg version="1.1" xmlns="http://www.w3.org/2000/svg" width="35" height="32" viewBox="0 0 35 32">
<title>doc2</title>
<path d="M30.295 0h-17.694v32h22.503v-32zM34.119 31.015h-15.724v-0.835h-0.985v0.835h-3.824v-30.030h3.824v0.631h0.985v-0.631h10.915v0.412h0.985v-0.412h3.824z"></path>
<path d="M17.409 16.391h0.985v0.985h-0.985v-0.985z"></path>
<path d="M17.409 12.451h0.985v0.985h-0.985v-0.985z"></path>
<path d="M17.409 2.601h0.985v0.985h-0.985v-0.985z"></path>
<path d="M17.409 10.481h0.985v0.985h-0.985v-0.985z"></path>
<path d="M17.409 4.571h0.985v0.985h-0.985v-0.985z"></path>
<path d="M17.409 6.541h0.985v0.985h-0.985v-0.985z"></path>
<path d="M17.409 8.511h0.985v0.985h-0.985v-0.985z"></path>
<path d="M17.409 14.421h0.985v0.985h-0.985v-0.985z"></path>
<path d="M17.409 26.24h0.985v0.985h-0.985v-0.985z"></path>
<path d="M17.409 28.21h0.985v0.985h-0.985v-0.985z"></path>
<path d="M17.409 24.27h0.985v0.985h-0.985v-0.985z"></path>
<path d="M17.409 18.361h0.985v0.985h-0.985v-0.985z"></path>
<path d="M17.409 20.331h0.985v0.985h-0.985v-0.985z"></path>
<path d="M17.409 22.301h0.985v0.985h-0.985v-0.985z"></path>
<path d="M29.31 8.291h0.985v0.985h-0.985v-0.985z"></path>
<path d="M29.31 14.201h0.985v0.985h-0.985v-0.985z"></path>
<path d="M29.31 16.171h0.985v0.985h-0.985v-0.985z"></path>
<path d="M29.31 12.231h0.985v0.985h-0.985v-0.985z"></path>
<path d="M29.31 20.111h0.985v0.985h-0.985v-0.985z"></path>
<path d="M29.31 18.141h0.985v0.985h-0.985v-0.985z"></path>
<path d="M29.31 2.382h0.985v0.985h-0.985v-0.985z"></path>
<path d="M29.31 22.081h0.985v0.985h-0.985v-0.985z"></path>
<path d="M29.31 10.261h0.985v0.985h-0.985v-0.985z"></path>
<path d="M29.31 4.352h0.985v0.985h-0.985v-0.985z"></path>
<path d="M29.31 6.322h0.985v0.985h-0.985v-0.985z"></path>
<path d="M29.31 24.051h0.985v0.985h-0.985v-0.985z"></path>
<path d="M29.31 27.991h0.985v0.985h-0.985v-0.985z"></path>
<path d="M29.31 29.961h0.985v0.985h-0.985v-0.985z"></path>
<path d="M29.31 26.021h0.985v0.985h-0.985v-0.985z"></path>
<path d="M21.574 3.988h2.964v0.985h-2.964v-0.985z"></path>
<path d="M21.574 26.51h2.964v0.985h-2.964v-0.985z"></path>
<path d="M23.852 7.164h2.964v0.985h-2.964v-0.985z"></path>
<path d="M21.574 10.663h2.964v0.985h-2.964v-0.985z"></path>
<path d="M23.852 15.028h2.964v0.985h-2.964v-0.985z"></path>
<path d="M21.574 18.527h2.964v0.985h-2.964v-0.985z"></path>
<path d="M23.852 22.891h2.964v0.985h-2.964v-0.985z"></path>
<path d="M8.979 8.333c-0.274-0.462-0.77-0.766-1.337-0.766s-1.063 0.304-1.333 0.759l-0.004 0.007c-0.246 0.299-0.35 0.404-0.574 0.404s-0.329-0.105-0.574-0.404c-0.274-0.461-0.769-0.766-1.336-0.766s-1.062 0.304-1.332 0.759l-0.004 0.007c-0.246 0.299-0.35 0.404-0.573 0.404s-0.329-0.104-0.573-0.404c-0.288-0.448-0.775-0.746-1.334-0.766l-0.003-0v0.985c0.224 0 0.329 0.105 0.574 0.404 0.274 0.461 0.769 0.766 1.336 0.766s1.062-0.304 1.332-0.759l0.004-0.007c0.246-0.299 0.35-0.404 0.573-0.404s0.329 0.105 0.574 0.404c0.274 0.461 0.77 0.766 1.337 0.766s1.063-0.304 1.333-0.759l0.004-0.007c0.246-0.3 0.351-0.405 0.575-0.405s0.329 0.105 0.574 0.404c0.287 0.448 0.775 0.746 1.334 0.766l0.003 0v-0.985c-0.226-0.001-0.331-0.104-0.574-0.403z"></path>
<path d="M8.979 14.015c-0.274-0.462-0.77-0.766-1.337-0.766s-1.063 0.305-1.333 0.759l-0.004 0.007c-0.246 0.299-0.35 0.404-0.574 0.404s-0.329-0.105-0.574-0.404c-0.274-0.461-0.769-0.766-1.336-0.766s-1.062 0.304-1.332 0.759l-0.004 0.007c-0.246 0.299-0.35 0.404-0.573 0.404s-0.329-0.105-0.573-0.404c-0.287-0.448-0.775-0.746-1.334-0.766l-0.003-0v0.985c0.224 0 0.329 0.105 0.574 0.404 0.274 0.461 0.769 0.766 1.336 0.766s1.062-0.304 1.332-0.759l0.004-0.007c0.246-0.299 0.35-0.404 0.573-0.404s0.329 0.105 0.574 0.404c0.274 0.462 0.77 0.766 1.337 0.766s1.063-0.305 1.333-0.759l0.004-0.007c0.246-0.299 0.351-0.404 0.575-0.404s0.329 0.105 0.574 0.404c0.287 0.448 0.775 0.746 1.334 0.766l0.003 0v-0.985c-0.226 0.001-0.331-0.104-0.574-0.403z"></path>
<path d="M8.979 19.698c-0.274-0.462-0.77-0.766-1.337-0.766s-1.063 0.305-1.333 0.759l-0.004 0.007c-0.246 0.299-0.35 0.404-0.574 0.404s-0.329-0.105-0.574-0.404c-0.274-0.461-0.769-0.766-1.336-0.766s-1.062 0.304-1.332 0.759l-0.004 0.007c-0.246 0.299-0.35 0.404-0.573 0.404s-0.329-0.105-0.573-0.404c-0.287-0.448-0.775-0.746-1.334-0.766l-0.003-0v0.985c0.224 0 0.329 0.105 0.574 0.404 0.274 0.461 0.769 0.766 1.336 0.766s1.062-0.305 1.332-0.759l0.004-0.007c0.246-0.299 0.35-0.404 0.573-0.404s0.329 0.105 0.574 0.404c0.274 0.462 0.77 0.766 1.337 0.766s1.063-0.305 1.333-0.759l0.004-0.007c0.246-0.299 0.351-0.404 0.575-0.404s0.329 0.105 0.574 0.404c0.287 0.448 0.775 0.746 1.334 0.766l0.003 0v-0.985c-0.226 0-0.331-0.104-0.574-0.403z"></path>
</svg>
