<!-- Generated by IcoMoon.io -->
<svg version="1.1" xmlns="http://www.w3.org/2000/svg" width="80" height="32" viewBox="0 0 80 32">
<title>doc3</title>
<path d="M53.295 0h-27.703v1.839h27.703v28.323h-27.703v1.839h54.362v-32zM78.116 30.161h-22.983v-28.323h22.983z"></path>
<path d="M6.723 0.784h1.839v1.839h-1.839v-1.839z"></path>
<path d="M10.4 0.784h1.839v1.839h-1.839v-1.839z"></path>
<path d="M17.755 0.784h1.839v1.839h-1.839v-1.839z"></path>
<path d="M14.077 0.784h1.839v1.839h-1.839v-1.839z"></path>
<path d="M7.354 10.57h1.839v1.839h-1.839v-1.839z"></path>
<path d="M3.677 10.57h1.839v1.839h-1.839v-1.839z"></path>
<path d="M11.032 10.57h1.839v1.839h-1.839v-1.839z"></path>
<path d="M0 10.57h1.839v1.839h-1.839v-1.839z"></path>
<path d="M3.677 20.357h1.839v1.839h-1.839v-1.839z"></path>
<path d="M0 20.357h1.839v1.839h-1.839v-1.839z"></path>
<path d="M7.354 20.357h1.839v1.839h-1.839v-1.839z"></path>
<path d="M11.032 20.357h1.839v1.839h-1.839v-1.839z"></path>
<path d="M17.755 29.377h1.839v1.839h-1.839v-1.839z"></path>
<path d="M10.4 29.377h1.839v1.839h-1.839v-1.839z"></path>
<path d="M6.723 29.377h1.839v1.839h-1.839v-1.839z"></path>
<path d="M14.077 29.377h1.839v1.839h-1.839v-1.839z"></path>
</svg>
