<!-- Generated by IcoMoon.io -->
<svg version="1.1" xmlns="http://www.w3.org/2000/svg" width="17" height="32" viewBox="0 0 17 32">
<title>facebook</title>
<path d="M4.8 18.062h-3.958c-0.64 0-0.842-0.24-0.842-0.842v-4.844c0-0.64 0.24-0.842 0.842-0.842h3.958v-3.524c-0.003-0.079-0.004-0.173-0.004-0.267 0-1.562 0.402-3.029 1.109-4.305l-0.023 0.046c0.798-1.374 2.036-2.417 3.518-2.949l0.046-0.015c0.893-0.33 1.924-0.52 3-0.52 0.029 0 0.059 0 0.088 0l-0.004-0h3.93c0.56 0 0.8 0.24 0.8 0.8v4.566c0 0.56-0.24 0.8-0.8 0.8-1.082 0-2.162 0-3.244 0.040-0.064-0.010-0.137-0.016-0.212-0.016-0.799 0-1.446 0.647-1.446 1.446 0 0.075 0.006 0.148 0.017 0.22l-0.001-0.008c-0.040 1.2 0 2.362 0 3.6h4.646c0.64 0 0.882 0.24 0.882 0.882v4.846c0 0.64-0.2 0.842-0.882 0.842h-4.646v13.056c0 0.68-0.2 0.922-0.922 0.922h-5c-0.6 0-0.842-0.24-0.842-0.842z"></path>
</svg>
