<!-- Generated by IcoMoon.io -->
<svg version="1.1" xmlns="http://www.w3.org/2000/svg" width="32" height="32" viewBox="0 0 32 32">
<title>flash</title>
<path d="M16.001 32c-8.832-0.010-15.99-7.168-16-15.999v-0.001c0.010-8.832 7.168-15.99 15.999-16h0.001c8.833 0.010 15.99 7.167 16 15.999v0.001c-0.010 8.833-7.167 15.99-15.999 16h-0.001zM16.001 1.067c-8.244 0.009-14.924 6.69-14.933 14.932v0.001c0.009 8.244 6.69 14.924 14.932 14.933h0.001c8.244-0.009 14.924-6.69 14.933-14.932v-0.001c-0.009-8.244-6.69-14.924-14.932-14.933h-0.001z"></path>
<path d="M16.591 24.4l-0.98-0.421 2.933-6.836h-7.52l4.601-9.168 0.953 0.48-3.826 7.623h7.413z"></path>
</svg>
