<!-- Generated by IcoMoon.io -->
<svg version="1.1" xmlns="http://www.w3.org/2000/svg" width="32" height="32" viewBox="0 0 32 32">
<title>instagram</title>
<path d="M16 0h-6.585c-1.41 0.040-2.746 0.305-3.99 0.76l0.088-0.028c-1.109 0.465-2.052 1.126-2.825 1.947l-0.004 0.004c-0.778 0.789-1.405 1.729-1.833 2.772l-0.021 0.057c-0.427 1.157-0.692 2.492-0.731 3.885l-0 0.018v13.171c0.040 1.41 0.305 2.746 0.76 3.99l-0.028-0.088c0.454 1.081 1.080 2.005 1.854 2.781l-0-0c0.789 0.778 1.729 1.405 2.772 1.833l0.057 0.021c1.157 0.427 2.492 0.692 3.885 0.731l0.018 0h13.171c1.41-0.040 2.746-0.305 3.99-0.76l-0.088 0.028c2.264-0.859 4.019-2.615 4.859-4.821l0.019-0.057c0.427-1.157 0.692-2.492 0.731-3.885l0-0.018v-13.171c-0.040-1.41-0.305-2.746-0.76-3.99l0.028 0.088c-0.533-1.021-1.237-1.881-2.083-2.574l-0.014-0.011c-0.766-0.79-1.692-1.419-2.727-1.835l-0.053-0.019c-1.151-0.482-2.485-0.782-3.884-0.829l-0.018-0.001h-6.585zM16 2.878h6.439c1.070 0.008 2.092 0.204 3.037 0.557l-0.061-0.020c0.745 0.341 1.367 0.838 1.845 1.452l0.008 0.011c0.531 0.505 0.947 1.125 1.208 1.82l0.011 0.034c0.398 0.884 0.675 1.909 0.777 2.985l0.003 0.039v12.732c-0.040 1.059-0.233 2.060-0.558 2.999l0.022-0.072c-0.273 0.729-0.689 1.349-1.217 1.852l-0.002 0.002c-0.505 0.531-1.125 0.947-1.82 1.208l-0.034 0.011c-0.943 0.438-2.041 0.72-3.198 0.78l-0.022 0.001h-12.683c-1.071-0.014-2.092-0.21-3.039-0.557l0.064 0.020c-0.771-0.323-1.412-0.823-1.894-1.452l-0.008-0.011c-0.546-0.494-0.966-1.117-1.21-1.823l-0.009-0.031c-0.335-0.869-0.531-1.874-0.537-2.924v-12.978c-0.001-0.032-0.001-0.070-0.001-0.109 0-1.015 0.197-1.983 0.556-2.87l-0.018 0.051c0.275-0.679 0.691-1.252 1.214-1.703l0.006-0.005c0.436-0.575 0.992-1.037 1.632-1.354l0.027-0.012c0.959-0.326 2.064-0.521 3.212-0.537l0.008-0h6.488z"></path>
<path d="M16 21.317c-2.937 0-5.317-2.381-5.317-5.317s2.381-5.317 5.317-5.317c2.937 0 5.317 2.381 5.317 5.317v0c0 2.937-2.381 5.317-5.317 5.317v0zM16 7.805c-4.441 0.109-8 3.735-8 8.193 0 4.526 3.669 8.195 8.195 8.195s8.194-3.668 8.195-8.193v-0c-0.027-4.533-3.707-8.196-8.244-8.196-0.052 0-0.103 0-0.154 0.001l0.008-0zM26.439 7.463c0 1.051-0.852 1.902-1.902 1.902s-1.902-0.852-1.902-1.902v0c0-1.051 0.852-1.902 1.902-1.902s1.902 0.852 1.902 1.902v0z"></path>
</svg>
