<!-- Generated by IcoMoon.io -->
<svg version="1.1" xmlns="http://www.w3.org/2000/svg" width="32" height="32" viewBox="0 0 32 32">
<title>linkedin</title>
<path d="M32 32v-11.184c0-5.496-1.184-9.696-7.6-9.696-0.082-0.004-0.178-0.006-0.275-0.006-2.43 0-4.554 1.307-5.708 3.257l-0.017 0.031h-0.076v-2.786h-6.060v20.384h6.336v-10.116c0-2.672 0.496-5.23 3.78-5.23 3.244 0 3.282 3.016 3.282 5.382v9.924h6.336z"></path>
<path d="M0.496 11.616h6.336v20.384h-6.336z"></path>
<path d="M3.664 0c-0.006-0-0.013-0-0.020-0-2.035 0-3.684 1.649-3.684 3.684s1.649 3.684 3.684 3.684c2.035 0 3.684-1.649 3.684-3.684 0-0.007-0-0.014-0-0.021v0.001c-0.001-2.023-1.641-3.663-3.664-3.664h-0z"></path>
</svg>
