<!-- Generated by IcoMoon.io -->
<svg version="1.1" xmlns="http://www.w3.org/2000/svg" width="43" height="32" viewBox="0 0 43 32">
<title>logo-fr</title>
<path d="M19.937 28.080h-3.861c-2.079 0-3.802-1.127-3.802-2.554v-2.911c0-1.366 1.722-2.495 3.802-2.495h3.861c1.901 0 3.386 0.891 3.742 2.019h-7.602c-0.416 0-0.772 0.238-0.772 0.534v2.913c0 0.297 0.356 0.534 0.772 0.534h7.603c-0.414 1.067-1.841 1.957-3.742 1.957z"></path>
<path d="M35.618 28.080v-4.039l-3.564 4.039h-0.772l-3.564-4.039v4.039h-2.97v-7.959h2.97l3.98 4.453 3.861-4.453h2.97v7.959z"></path>
<path d="M12.288 15.377v0 2.97h7.484v-2.911l-3.623-4.811z"></path>
<path d="M19.827 10.512l3.683 4.692v3.148h5.88v-6.656l-5.405-6.651z"></path>
<path d="M28.194 5.405s4.692 5.999 4.692 6.058v6.89h5.702v-10.751l-6.237-7.603z"></path>
<path d="M20.483 31.941v-1.247l-0.475 1.127c-0.082 0.109-0.211 0.178-0.357 0.178s-0.274-0.070-0.356-0.177l-0.001-0.001-0.475-1.127v1.247h-0.475v-1.485c0-0.238 0.178-0.297 0.416-0.297s0.356 0.059 0.416 0.238l0.475 1.127 0.534-1.127c0.059-0.178 0.178-0.238 0.416-0.238s0.416 0.059 0.416 0.297v1.485z"></path>
<path d="M22.501 31.941h-0.712c-0.297 0-0.594-0.119-0.594-0.475v-0.831c0-0.297 0.297-0.416 0.594-0.416h0.713c0.297 0 0.594 0.178 0.594 0.416v0.831c-0.032 0.27-0.26 0.478-0.536 0.478-0.021 0-0.041-0.001-0.061-0.003l0.002 0zM22.62 30.634c0-0.119-0.059-0.119-0.238-0.119h-0.534c-0.119 0-0.238 0.059-0.238 0.119v0.831c0 0.119 0.178 0.119 0.238 0.119h0.534c0.059 0 0.238 0 0.238-0.119z"></path>
<path d="M24.638 31.941h-1.306v-1.782h1.306c0.297 0 0.594 0.178 0.594 0.416v0.891c0 0.296-0.237 0.475-0.594 0.475zM24.817 30.634c0-0.119-0.059-0.119-0.238-0.119h-0.772v1.071h0.772c0.059 0 0.238 0 0.238-0.119z"></path>
<path d="M26.776 31.941h-0.653c-0.297 0-0.594-0.119-0.594-0.475v-1.306h0.475v1.306c0 0.119 0.178 0.119 0.238 0.119h0.475c0.059 0 0.238 0 0.238-0.119v-1.306h0.475v1.306c-0.059 0.275-0.3 0.479-0.588 0.479-0.023 0-0.046-0.001-0.068-0.004l0.003 0z"></path>
<path d="M28.201 31.941c-0.297 0-0.594-0.119-0.594-0.475v-1.306h0.475v1.306c0 0.119 0.178 0.119 0.238 0.119h1.071v0.356z"></path>
<path d="M32.059 31.941v-1.782h0.475v1.782z"></path>
<path d="M34.137 31.941l-0.891-0.711v0.713h-0.475v-1.784h1.366c0.018-0.002 0.038-0.004 0.058-0.004 0.244 0 0.445 0.182 0.476 0.417l0 0.002v0.238c-0.053 0.24-0.264 0.416-0.516 0.416-0.007 0-0.013-0-0.020-0l0.001 0h-0.295l0.95 0.713zM34.196 30.634c0-0.059-0.059-0.119-0.178-0.119h-0.772v0.356h0.831c0.119 0 0.178-0.059 0.178-0.119v-0.119z"></path>
<path d="M35.321 31.228v0.238c0 0.119 0.178 0.119 0.238 0.119h1.010v0.356h-1.127c-0.297 0-0.594-0.119-0.594-0.475v-0.832c0-0.297 0.297-0.416 0.594-0.416h1.127v0.356h-1.071c-0.119 0-0.238 0.059-0.238 0.119v0.178h1.247v0.356z"></path>
<path d="M37.579 30.456c-0.119 0-0.238 0.059-0.238 0.119v0.119c0 0.119 0.178 0.119 0.238 0.119h0.414c0.297 0 0.594 0.178 0.594 0.416v0.238c-0.032 0.27-0.26 0.478-0.536 0.478-0.020 0-0.041-0.001-0.061-0.003l0.002 0h-1.071v-0.297h1.015c0.059 0 0.178 0 0.178-0.119v-0.121c0-0.119-0.059-0.119-0.238-0.119h-0.416c-0.297 0-0.594-0.119-0.594-0.475v-0.119c0-0.297 0.297-0.416 0.594-0.416h1.127v0.356h-1.009z"></path>
<path d="M29.921 31.941h1.127l-0.178-0.416h-0.711l0.475-0.95 0.713 1.306h0.475l-0.891-1.604c-0.055-0.107-0.165-0.178-0.291-0.178-0.002 0-0.004 0-0.006 0h0c-0.013-0.002-0.029-0.003-0.044-0.003-0.133 0-0.249 0.072-0.311 0.179l-0.001 0.002-0.891 1.604h0.475z"></path>
<path d="M0 28.733h38.588v0.534h-38.588v-0.534z"></path>
<path d="M3.030 25.882v2.255h-3.030v-8.016h7.662c2.138 0 3.802 1.127 3.802 2.495v0.713c-0.073 0.679-0.484 1.247-1.060 1.539l-0.011 0.005c0.592 0.291 1.006 0.863 1.070 1.537l0.001 0.008v1.663h-2.97v-1.663c0-0.297-0.356-0.534-0.831-0.534zM3.030 23.863h4.633c0.416 0 0.831-0.238 0.831-0.534v-0.713c0-0.297-0.356-0.534-0.831-0.534h-4.633v1.782z"></path>
<path d="M0.653 30.515c-0.119 0-0.238 0.059-0.238 0.119v0.119c0.041 0.073 0.119 0.121 0.207 0.121 0.011 0 0.022-0.001 0.032-0.002l-0.001 0h0.418c0.297 0 0.594 0.119 0.594 0.416v0.178c0 0.297-0.238 0.475-0.594 0.475h-1.071v-0.297h1.010c0.059 0 0.178 0 0.178-0.119v-0.121c0-0.119-0.059-0.119-0.238-0.119h-0.356c-0.297 0.002-0.594-0.117-0.594-0.474v-0.119c0-0.296 0.297-0.415 0.594-0.415h1.127v0.297h-1.071z"></path>
<path d="M3.148 31.881h-0.653c-0.297 0-0.594-0.119-0.594-0.475v-0.831c0-0.297 0.297-0.416 0.594-0.416h0.712c0.297 0 0.594 0.178 0.594 0.416v0.891c-0.078 0.246-0.305 0.421-0.572 0.421-0.029 0-0.057-0.002-0.084-0.006l0.003 0zM3.267 30.634c0-0.119-0.059-0.119-0.238-0.119h-0.475c-0.119 0-0.238 0.059-0.238 0.119v0.831c0 0.119 0.178 0.119 0.238 0.119h0.534c0.059 0 0.238 0 0.238-0.119v-0.831z"></path>
<path d="M4.574 31.881c-0.297 0-0.594-0.119-0.594-0.475v-1.306h0.475v1.366c0 0.119 0.178 0.119 0.238 0.119h1.009v0.356h-1.127z"></path>
<path d="M7.128 31.881h-0.653c-0.297 0-0.594-0.119-0.594-0.475v-1.306h0.475v1.366c0 0.119 0.178 0.119 0.238 0.119h0.534c0.059 0 0.238 0 0.238-0.119v-1.307h0.356v1.306c0 0.298-0.297 0.416-0.594 0.416z"></path>
<path d="M8.91 30.515v1.425h-0.475v-1.425h-0.535v-0.356h1.544v0.356z"></path>
<path d="M9.681 31.881v-1.722h0.416v1.722z"></path>
<path d="M11.642 31.881h-0.712c-0.297 0-0.594-0.119-0.594-0.475v-0.831c0-0.297 0.297-0.416 0.594-0.416h0.713c0.297 0 0.594 0.178 0.594 0.416v0.891c-0.053 0.242-0.266 0.421-0.521 0.421-0.026 0-0.052-0.002-0.077-0.006l0.003 0zM11.761 30.634c0-0.119-0.059-0.119-0.238-0.119h-0.534c-0.119 0-0.238 0.059-0.238 0.119v0.831c0 0.119 0.178 0.119 0.238 0.119h0.534c0.059 0 0.238 0 0.238-0.119z"></path>
<path d="M13.899 31.94c-0.013 0.002-0.029 0.003-0.044 0.003-0.133 0-0.249-0.072-0.311-0.179l-0.001-0.002-0.653-1.071v1.247h-0.476v-1.483c0-0.238 0.178-0.297 0.356-0.297 0.003-0 0.007-0 0.011-0 0.142 0 0.267 0.070 0.344 0.177l0.001 0.001 0.653 1.071v-1.249h0.475v1.485c0.001 0.237-0.178 0.296-0.356 0.296z"></path>
<path d="M15.146 30.515c-0.119 0-0.238 0.059-0.238 0.119v0.119c0 0.119 0.178 0.119 0.238 0.119h0.414c0.297 0 0.594 0.119 0.594 0.416v0.178c0 0.297-0.238 0.475-0.594 0.475h-1.071v-0.297h1.015c0.059 0 0.178 0 0.178-0.119v-0.121c0-0.119-0.059-0.119-0.238-0.119h-0.416c-0.297 0-0.594-0.119-0.594-0.475v-0.119c0-0.297 0.297-0.416 0.594-0.416h1.127v0.297h-1.009z"></path>
<path d="M42.746 26.476v0.891c-0.009 0.423-0.349 0.763-0.771 0.772h-0.892c-0.423-0.009-0.763-0.349-0.772-0.771v-0.892c0.007-0.366 0.253-0.672 0.588-0.771l0.006-0.001v1.604c0.006 0.096 0.082 0.172 0.178 0.178l0.001 0h0.891c0.096-0.006 0.172-0.082 0.178-0.178l0-0.001v-0.891c-0.006-0.096-0.082-0.172-0.178-0.178l-0.001-0h-0.119v0.653l-0.594 0.119v-1.366h0.713c0.422 0.056 0.748 0.402 0.772 0.829l0 0.002z"></path>
<path d="M42.746 22.735h-0.475c-0.096 0.006-0.172 0.082-0.178 0.178l-0 0.001v1.010l-0.595 0.118v-1.127c-0.006-0.096-0.082-0.172-0.178-0.178l-0.001-0h-0.177c-0.096 0.006-0.172 0.082-0.178 0.178l-0 0.001v0.95h1.782v0.593h-2.376v-1.544c0.009-0.423 0.349-0.763 0.771-0.772h0.179c0.189 0.018 0.355 0.106 0.475 0.237l0.001 0.001c0.12-0.132 0.286-0.22 0.472-0.238l0.003-0h0.475z"></path>
<path d="M42.746 19.171v0.891c-0.009 0.423-0.349 0.763-0.771 0.772h-0.892c-0.423-0.009-0.763-0.349-0.772-0.771v-0.892c0.009-0.423 0.349-0.763 0.771-0.772h0.892c0.414 0.029 0.743 0.358 0.772 0.77l0 0.003zM41.143 19.052c-0.096 0.006-0.172 0.082-0.178 0.178l-0 0.001v0.891c0.006 0.096 0.082 0.172 0.178 0.178l0.001 0h0.891c0.096-0.006 0.172-0.082 0.178-0.178l0-0.001v-0.891c-0.006-0.096-0.082-0.172-0.178-0.178l-0.001-0z"></path>
<path d="M42.746 15.488v0.891c-0.009 0.423-0.349 0.763-0.771 0.772h-1.604v-0.594h1.604c0.096-0.006 0.172-0.082 0.178-0.178l0-0.001v-0.891c-0.006-0.096-0.082-0.172-0.178-0.178l-0.001-0h-1.604v-0.594h1.604c0.423 0.009 0.763 0.349 0.772 0.771v0.001z"></path>
<path d="M42.152 11.865v0.95l-0.594 0.119v-1.071c-0.006-0.096-0.082-0.172-0.178-0.178l-0.001-0h-0.297c-0.096 0.006-0.172 0.082-0.178 0.178l-0 0.001v0.95h1.782v0.596h-2.376v-1.544c0.009-0.423 0.349-0.763 0.771-0.772h0.3c0.423 0.008 0.764 0.349 0.77 0.772v0.001z"></path>
<path d="M42.746 9.192c-0.005 0.358-0.295 0.648-0.653 0.651h-1.071c-0.358-0.004-0.647-0.293-0.652-0.651v-1.604h0.594v1.604c0 0.059 0 0.059 0.059 0.059h1.071c0.059 0 0.059 0 0.059-0.059v-1.604h0.594zM41.854 9.311l-0.594 0.119v-1.307h0.594z"></path>
</svg>
