<!-- Generated by IcoMoon.io -->
<svg version="1.1" xmlns="http://www.w3.org/2000/svg" width="43" height="32" viewBox="0 0 43 32">
<title>logo-en</title>
<path d="M19.828 27.907h-3.822c-2.067 0-3.753-1.129-3.753-2.516v-2.897c0-1.387 1.686-2.502 3.753-2.502h3.808c1.904 0 3.332 0.87 3.74 1.986h-7.548c-0.435 0-0.789 0.231-0.789 0.517v2.897c0 0.299 0.34 0.53 0.789 0.53h7.561c-0.408 1.088-1.863 1.986-3.74 1.986z"></path>
<path d="M35.373 27.907v-4.026l-3.522 4.026h-0.789l-3.522-4.026v4.026h-2.978v-7.915h2.978l3.971 4.434 3.835-4.434h3.006v7.915h-2.978z"></path>
<path d="M12.267 15.272l-0.014 0.027v2.951h7.398v-2.91l-3.617-4.801-3.767 4.733z"></path>
<path d="M19.706 10.417c0 0 3.631 4.624 3.672 4.678 0 0.054 0 3.155 0 3.155h5.848v-6.623l-5.358-6.596-4.162 5.385z"></path>
<path d="M28.029 5.385c0 0 4.637 5.957 4.678 5.997 0 0.054 0 6.854 0 6.854h5.644v-10.689l-6.161-7.548-4.162 5.385z"></path>
<path d="M0.054 28.505h38.297v0.53h-38.297v-0.53z"></path>
<path d="M3.033 25.676v2.217h-2.978v-7.915h7.575c2.108 0 3.794 1.115 3.794 2.502v0.68c0 0.626-0.517 1.224-1.074 1.537 0.558 0.299 1.074 0.952 1.074 1.523v1.659h-2.978v-1.659c0-0.299-0.354-0.558-0.802-0.558l-4.61 0.014zM3.033 23.704h4.624c0.435 0 0.802-0.245 0.802-0.53v-0.68c0-0.299-0.381-0.517-0.816-0.517h-4.61v1.727z"></path>
<path d="M42.961 25.948v1.047c0 0.49-0.408 0.898-0.898 0.898h-1.034c-0.49 0-0.898-0.408-0.898-0.898v-1.047c0-0.449 0.313-0.802 0.707-0.898v1.945c0 0.109 0.082 0.19 0.19 0.19h1.034c0.109 0 0.19-0.082 0.19-0.19v-1.047c0-0.109-0.082-0.19-0.19-0.19h-0.15v0.802l-0.707 0.136v-1.646h0.857c0.49 0 0.898 0.408 0.898 0.898z"></path>
<path d="M42.961 21.46h-0.598c-0.109 0-0.204 0.082-0.204 0.19v1.183l-0.707 0.136v-1.319c0-0.109-0.082-0.19-0.19-0.19h-0.245c-0.109 0-0.19 0.095-0.19 0.19v1.102h2.122v0.707h-2.829v-1.809c0-0.503 0.408-0.898 0.898-0.898h0.245c0.218 0 0.435 0.122 0.558 0.258 0.109-0.136 0.34-0.258 0.544-0.258h0.598v0.707z"></path>
<path d="M42.961 17.272v1.061c0 0.49-0.408 0.898-0.898 0.898h-1.034c-0.49 0-0.898-0.408-0.898-0.898v-1.061c0-0.503 0.408-0.898 0.898-0.898h1.034c0.49 0 0.898 0.408 0.898 0.898zM41.017 17.081c-0.109 0-0.19 0.095-0.19 0.19v1.061c0 0.109 0.082 0.19 0.19 0.19h1.034c0.109 0 0.19-0.082 0.19-0.19v-1.061c0-0.109-0.082-0.19-0.19-0.19h-1.034z"></path>
<path d="M42.961 12.838v1.061c0 0.49-0.408 0.898-0.898 0.898h-1.945v-0.707h1.931c0.109 0 0.19-0.082 0.19-0.19v-1.061c0-0.109-0.082-0.19-0.19-0.19h-1.931v-0.707h1.931c0.503 0 0.911 0.408 0.911 0.898z"></path>
<path d="M42.268 8.554v1.17l-0.707 0.136v-1.292c0-0.109-0.082-0.19-0.19-0.19h-0.354c-0.109 0-0.19 0.095-0.19 0.19v1.088h2.122v0.707h-2.829v-1.809c0-0.503 0.408-0.898 0.898-0.898h0.354c0.503 0 0.898 0.394 0.898 0.898z"></path>
<path d="M20.195 30.314c-0.163 0-0.258 0.041-0.258 0.15v0.136c0 0.136 0.19 0.15 0.258 0.15h0.476c0.367 0 0.707 0.177 0.707 0.503v0.163c0 0.367-0.313 0.544-0.68 0.544h-1.278v-0.367h1.197c0.054 0 0.231-0.027 0.231-0.177v-0.136c0-0.109-0.095-0.15-0.258-0.15h-0.49c-0.367 0-0.68-0.163-0.68-0.544v-0.163c0-0.34 0.34-0.517 0.68-0.517h1.292v0.381l-1.197 0.027z"></path>
<path d="M23.092 31.973h-0.802c-0.367 0-0.68-0.163-0.68-0.544v-0.979c0-0.34 0.34-0.517 0.68-0.517h0.802c0.34 0 0.68 0.177 0.68 0.517v0.979c0.014 0.367-0.313 0.544-0.68 0.544zM23.255 30.477c0-0.109-0.095-0.15-0.245-0.15h-0.626c-0.163 0-0.258 0.041-0.258 0.15v0.966c0 0.136 0.19 0.15 0.258 0.15h0.626c0.068 0 0.245-0.014 0.245-0.15v-0.966z"></path>
<path d="M24.724 31.973c-0.367 0-0.68-0.163-0.68-0.544v-1.496h0.517v1.496c0 0.136 0.19 0.15 0.258 0.15h1.197v0.381l-1.292 0.014z"></path>
<path d="M27.689 31.973h-0.789c-0.367 0-0.68-0.163-0.68-0.544v-1.496h0.517v1.496c0 0.136 0.19 0.15 0.258 0.15h0.612c0.068 0 0.258-0.014 0.258-0.15v-1.496h0.517v1.496c0 0.367-0.326 0.544-0.694 0.544z"></path>
<path d="M29.824 30.327v1.659h-0.53v-1.659h-0.626v-0.381h1.768v0.381h-0.612z"></path>
<path d="M30.694 31.973v-2.026h0.517v2.026h-0.517z"></path>
<path d="M32.966 31.973h-0.802c-0.367 0-0.68-0.163-0.68-0.544v-0.979c0-0.34 0.34-0.517 0.68-0.517h0.802c0.34 0 0.68 0.177 0.68 0.517v0.979c0.014 0.367-0.299 0.544-0.68 0.544zM33.129 30.477c0-0.109-0.095-0.15-0.245-0.15h-0.626c-0.163 0-0.258 0.041-0.258 0.15v0.966c0 0.136 0.19 0.15 0.258 0.15h0.626c0.068 0 0.245-0.014 0.245-0.15v-0.966z"></path>
<path d="M35.645 32c-0.177 0-0.313-0.054-0.408-0.218l-0.775-1.251v1.442h-0.517v-1.727c0-0.245 0.218-0.34 0.422-0.34 0.177 0 0.313 0.054 0.408 0.218l0.775 1.251v-1.442h0.53v1.727c-0.014 0.245-0.231 0.34-0.435 0.34z"></path>
<path d="M37.1 30.314c-0.163 0-0.258 0.041-0.258 0.15v0.136c0 0.136 0.19 0.15 0.258 0.15h0.476c0.367 0 0.707 0.177 0.707 0.503v0.163c0 0.367-0.313 0.544-0.68 0.544h-1.265v-0.367h1.197c0.041 0 0.231-0.027 0.231-0.177v-0.136c0-0.109-0.095-0.15-0.258-0.15h-0.49c-0.367 0-0.68-0.163-0.68-0.544v-0.163c0-0.34 0.34-0.517 0.68-0.517h1.292v0.381l-1.21 0.027z"></path>
<path d="M2.475 31.973v-1.469l-0.585 1.292c-0.109 0.136-0.218 0.19-0.394 0.19-0.204 0-0.286-0.054-0.394-0.19l-0.585-1.278v1.455h-0.517v-1.714c0-0.258 0.204-0.367 0.462-0.367 0.245 0 0.381 0.082 0.476 0.286l0.558 1.292 0.585-1.306c0.082-0.19 0.218-0.272 0.476-0.272s0.449 0.109 0.449 0.367v1.714h-0.53z"></path>
<path d="M4.746 31.973h-0.802c-0.367 0-0.68-0.163-0.68-0.544v-0.979c0-0.34 0.34-0.517 0.68-0.517h0.816c0.34 0 0.68 0.177 0.68 0.517v0.979c0 0.367-0.313 0.544-0.694 0.544zM4.909 30.477c0-0.109-0.095-0.15-0.245-0.15h-0.626c-0.163 0-0.258 0.041-0.258 0.15v0.966c0 0.136 0.19 0.15 0.258 0.15h0.626c0.068 0 0.245-0.014 0.245-0.15v-0.966z"></path>
<path d="M7.208 31.973h-1.496v-2.040h1.51c0.34 0 0.68 0.177 0.68 0.517v0.979c0 0.367-0.313 0.544-0.694 0.544zM7.371 30.463c0-0.109-0.095-0.15-0.258-0.15h-0.884v1.265h0.884c0.068 0 0.258-0.014 0.258-0.15v-0.966z"></path>
<path d="M11.274 31.973c-0.367 0-0.68-0.163-0.68-0.544v-1.496h0.517v1.496c0 0.136 0.19 0.15 0.258 0.15h1.197v0.381l-1.292 0.014z"></path>
<path d="M17.34 31.973l-1.061-0.816v0.816h-0.517v-2.040h1.578c0.34 0 0.598 0.218 0.598 0.49v0.245c0 0.15-0.19 0.476-0.598 0.476h-0.354l1.074 0.83h-0.721zM17.421 30.477c0-0.095-0.095-0.15-0.204-0.15h-0.938v0.435h0.938c0.122 0 0.204-0.054 0.204-0.15v-0.136z"></path>
<path d="M9.629 31.973h-0.789c-0.367 0-0.68-0.163-0.68-0.544v-1.496h0.517v1.496c0 0.136 0.19 0.15 0.258 0.15h0.612c0.068 0 0.258-0.014 0.258-0.15v-1.496h0.517v1.496c-0.014 0.367-0.326 0.544-0.694 0.544z"></path>
<path d="M13.26 31.973h1.306l-0.19-0.449h-0.789l0.571-1.061 0.816 1.496h0.558l-0.993-1.85c-0.082-0.136-0.204-0.218-0.367-0.218-0.177 0-0.313 0.054-0.394 0.204l-0.993 1.877h0.558z"></path>
</svg>
