<!-- Generated by IcoMoon.io -->
<svg version="1.1" xmlns="http://www.w3.org/2000/svg" width="36" height="32" viewBox="0 0 36 32">
<title>radar</title>
<path d="M17.253 1.89h0.945v0.945h-0.945v-0.945z"></path>
<path d="M17.253 3.78h0.945v0.945h-0.945v-0.945z"></path>
<path d="M17.253 0h0.945v0.945h-0.945v-0.945z"></path>
<path d="M35.707 31.053h-4.47v-11.45l-5.256-5.256-4.519 4.519v-5.834c0.574-0.333 1.071-0.711 1.514-1.144l-0.002 0.001c1.37-1.341 2.223-3.205 2.234-5.269v-0.002l0.004-0.476h-7.014v-0.473h-0.945v0.473h-7.011l0.004 0.476c0.021 1.957 0.794 3.73 2.044 5.046l-0.003-0.003h-5.822c-1.304 0.002-2.361 1.058-2.363 2.362v17.028h-4.102v0.945h35.707zM21.484 20.181l4.498-4.497 4.311 4.311v11.057h-8.831v-10.892zM20.518 31.053h-6.544v-18.043c1.056 0.634 2.327 1.014 3.687 1.028l0.004 0h0.063c0.002 0 0.003 0 0.005 0 1.003 0 1.959-0.198 2.832-0.556l-0.050 0.018zM24.241 7.088c-0.283 3.374-3.091 6.005-6.514 6.005s-6.231-2.631-6.512-5.982l-0.002-0.024zM5.048 31.053v-17.027c0-0.783 0.635-1.418 1.418-1.418v0h6.564v18.445z"></path>
</svg>
