<!-- Generated by IcoMoon.io -->
<svg version="1.1" xmlns="http://www.w3.org/2000/svg" width="46" height="32" viewBox="0 0 46 32">
<title>yt</title>
<path d="M44.759 5.007c-0.543-1.967-2.061-3.484-3.987-4.018l-0.040-0.009c-4.877-0.63-10.518-0.99-16.243-0.99-0.576 0-1.151 0.004-1.725 0.011l0.087-0.001c-0.487-0.006-1.063-0.010-1.639-0.010-5.724 0-11.366 0.346-16.909 1.018l0.667-0.066c-1.963 0.572-3.475 2.095-4.020 4.023l-0.010 0.041c-0.599 3.191-0.941 6.862-0.941 10.614 0 0.133 0 0.266 0.001 0.398l-0-0.020c-0.001 0.119-0.001 0.259-0.001 0.4 0 3.745 0.342 7.409 0.998 10.964l-0.057-0.37c0.543 1.967 2.061 3.484 3.987 4.018l0.040 0.009c4.881 0.63 10.527 0.99 16.256 0.99 0.572 0 1.143-0.004 1.714-0.011l-0.086 0.001c0.487 0.006 1.063 0.010 1.639 0.010 5.724 0 11.366-0.346 16.909-1.018l-0.667 0.066c1.967-0.543 3.484-2.061 4.018-3.987l0.010-0.040c0.6-3.196 0.944-6.873 0.944-10.631 0-0.128-0-0.255-0.001-0.383l0 0.020c0.002-0.196 0.004-0.428 0.004-0.66 0-3.666-0.344-7.251-1.003-10.725l0.056 0.357zM18.295 22.851v-13.711l11.897 6.855z"></path>
</svg>
