<?xml version="1.0" standalone="no"?>
<!DOCTYPE svg PUBLIC "-//W3C//DTD SVG 20010904//EN"
 "http://www.w3.org/TR/2001/REC-SVG-20010904/DTD/svg10.dtd">
<svg version="1.0" xmlns="http://www.w3.org/2000/svg"
 width="260.000000pt" height="260.000000pt" viewBox="0 0 260.000000 260.000000"
 preserveAspectRatio="xMidYMid meet">
<metadata>
Created by potrace 1.14, written by Peter Selinger 2001-2017
</metadata>
<g transform="translate(0.000000,260.000000) scale(0.100000,-0.100000)"
fill="#000000" stroke="none">
<path d="M1227 2534 c-1 -1 -16 -5 -32 -8 -17 -2 -30 -5 -30 -6 0 -1 -8 -3
-18 -5 -30 -6 -108 -45 -146 -73 -85 -63 -149 -155 -181 -259 -19 -62 -21 -87
-16 -195 3 -67 9 -139 13 -158 4 -19 7 -100 7 -180 0 -225 -27 -298 -156 -415
-71 -64 -146 -111 -332 -211 -88 -47 -146 -86 -181 -120 -50 -49 -113 -145
-120 -182 -2 -9 -4 -18 -5 -19 -2 -2 -4 -7 -5 -13 -1 -5 -4 -11 -5 -12 -11
-11 -23 -165 -15 -185 4 -10 9 -27 11 -38 9 -57 17 -85 24 -85 4 0 11 -12 14
-27 17 -63 135 -191 213 -228 21 -10 38 -16 39 -14 0 2 7 -1 15 -7 13 -11 40
-19 99 -32 31 -7 128 -7 155 0 11 3 37 8 58 13 20 4 40 11 43 16 3 5 12 9 20
9 23 0 115 62 160 109 45 46 93 128 119 206 20 60 21 193 1 320 -19 123 -14
235 14 315 27 81 48 109 110 155 139 102 320 88 440 -34 55 -56 79 -105 95
-201 11 -62 5 -185 -14 -284 -5 -26 -8 -89 -7 -139 3 -149 47 -251 154 -355
35 -34 68 -59 73 -56 5 3 9 1 9 -4 0 -5 19 -17 43 -27 23 -9 50 -21 60 -27 11
-5 21 -7 24 -4 3 2 17 0 32 -6 33 -14 161 -18 161 -6 0 5 9 7 19 3 11 -3 22
-1 25 4 4 6 13 8 20 5 8 -3 17 0 21 5 3 6 11 9 16 6 5 -4 9 -1 9 5 0 6 4 9 8
6 15 -9 126 65 176 117 89 95 134 216 131 352 -3 138 -60 264 -160 352 -30 27
-119 83 -202 127 -81 43 -177 99 -213 124 -76 53 -174 150 -195 195 -52 112
-62 281 -31 532 22 182 13 263 -44 376 -54 106 -198 226 -292 243 -13 3 -23 5
-23 7 0 7 -201 20 -208 13z"/>
</g>
</svg>
